<?xml version="1.0" encoding="utf-8"?>
<!-- Generator: Adobe Illustrator 23.0.0, SVG Export Plug-In . SVG Version: 6.00 Build 0)  -->
<svg version="1.1" id="Layer_1" xmlns="http://www.w3.org/2000/svg" xmlns:xlink="http://www.w3.org/1999/xlink" x="0px" y="0px"
	 viewBox="0 0 125 125" style="enable-background:new 0 0 125 125;" xml:space="preserve">
<path d="M93.6,64c-4.9,0-8.8,4-8.8,8.8c0,4.9,4,8.8,8.8,8.8s8.8-4,8.8-8.8C102.4,68,98.5,64,93.6,64z M93.6,78.2
	c-2.9,0-5.3-2.4-5.3-5.3c0-2.9,2.4-5.3,5.3-5.3s5.3,2.4,5.3,5.3C98.9,75.8,96.5,78.2,93.6,78.2z"/>
<path d="M111.3,78.2c2,0,3.5-1.6,3.5-3.5v-3.5c0-2-1.6-3.5-3.5-3.5h-2.7c-0.2-0.5-0.4-1-0.6-1.5l1.9-1.9c1.4-1.4,1.4-3.6,0-5
	l-2.5-2.5c-1.4-1.4-3.6-1.4-5,0l-1.9,1.9c-0.5-0.2-1-0.5-1.5-0.6v-2.7c0-2-1.6-3.5-3.5-3.5h-3.5c-2,0-3.5,1.6-3.5,3.5v2.7
	c-0.5,0.2-1,0.4-1.5,0.6l-1.9-1.9c-1.4-1.4-3.6-1.4-5,0l-2.5,2.5c-1.4,1.4-1.4,3.6,0,5l1.9,1.9c-0.2,0.5-0.5,1-0.6,1.5h-2.7
	c-2,0-3.5,1.6-3.5,3.5v3.5c0,2,1.6,3.5,3.5,3.5h2.7c0.2,0.5,0.4,1,0.6,1.5l-1.9,1.9c-1.4,1.4-1.4,3.6,0,5l2.5,2.5
	c1.4,1.4,3.6,1.4,5,0l1.9-1.9c0.5,0.2,1,0.5,1.5,0.6v2.7c0,2,1.6,3.5,3.5,3.5h3.5c2,0,3.5-1.6,3.5-3.5v-2.7c0.5-0.2,1-0.4,1.5-0.6
	l1.9,1.9c1.4,1.4,3.6,1.4,5,0l2.5-2.5c1.4-1.4,1.4-3.6,0-5l-1.9-1.9c0.2-0.5,0.5-1,0.6-1.5H111.3z M104.5,81.3l2.8,2.8l-2.5,2.5
	l-2.8-2.8c-0.6-0.6-1.5-0.7-2.1-0.3c-1,0.6-2.1,1-3.2,1.3c-0.8,0.2-1.3,0.9-1.3,1.7v4h-3.5v-4c0-0.8-0.5-1.5-1.3-1.7
	c-1.1-0.3-2.2-0.7-3.2-1.3c-0.3-0.2-0.6-0.2-0.9-0.2c-0.5,0-0.9,0.2-1.3,0.5l-2.8,2.8l-2.5-2.5l2.8-2.8c0.6-0.6,0.7-1.5,0.3-2.1
	c-0.6-1-1-2.1-1.3-3.2c-0.2-0.8-0.9-1.3-1.7-1.3h-4v-3.5h4c0.8,0,1.5-0.5,1.7-1.3c0.3-1.1,0.7-2.2,1.3-3.2c0.4-0.7,0.3-1.6-0.3-2.1
	l-2.8-2.8l2.5-2.5l2.8,2.8c0.6,0.6,1.5,0.7,2.1,0.3c1-0.6,2.1-1,3.2-1.3c0.8-0.2,1.3-0.9,1.3-1.7v-4h3.5v4c0,0.8,0.5,1.5,1.3,1.7
	c1.1,0.3,2.2,0.7,3.2,1.3c0.7,0.4,1.6,0.3,2.1-0.3l2.8-2.8l2.5,2.5l-2.8,2.8c-0.6,0.6-0.7,1.5-0.3,2.1c0.6,1,1,2.1,1.3,3.2
	c0.2,0.8,0.9,1.3,1.7,1.3h4v3.5h-4c-0.8,0-1.5,0.5-1.7,1.3c-0.3,1.1-0.7,2.2-1.3,3.2C103.8,79.9,103.9,80.7,104.5,81.3z"/>
<path d="M42.3,42.8c-4.9,0-8.8,4-8.8,8.8s4,8.8,8.8,8.8s8.8-4,8.8-8.8S47.1,42.8,42.3,42.8z M42.3,57c-2.9,0-5.3-2.4-5.3-5.3
	c0-2.9,2.4-5.3,5.3-5.3c2.9,0,5.3,2.4,5.3,5.3C47.6,54.6,45.2,57,42.3,57z"/>
<path d="M60,57c2,0,3.5-1.6,3.5-3.5v-3.5c0-2-1.6-3.5-3.5-3.5h-2.7c-0.2-0.5-0.4-1-0.6-1.5l1.9-1.9c1.4-1.4,1.4-3.6,0-5L56,35.4
	c-1.4-1.4-3.6-1.4-5,0l-1.9,1.9c-0.5-0.2-1-0.5-1.5-0.6V34c0-2-1.6-3.5-3.5-3.5h-3.5c-2,0-3.5,1.6-3.5,3.5v2.7
	c-0.5,0.2-1,0.4-1.5,0.6l-1.9-1.9c-1.4-1.4-3.6-1.4-5,0L26,37.9c-1.4,1.4-1.4,3.6,0,5l1.9,1.9c-0.2,0.5-0.5,1-0.6,1.5h-2.7
	c-2,0-3.5,1.6-3.5,3.5v3.5c0,2,1.6,3.5,3.5,3.5h2.7c0.2,0.5,0.4,1,0.6,1.5L26,60.4c-1.4,1.4-1.4,3.6,0,5l2.5,2.5
	c1.4,1.4,3.6,1.4,5,0l1.9-1.9c0.5,0.2,1,0.5,1.5,0.6v2.7c0,2,1.6,3.5,3.5,3.5H44c2,0,3.5-1.6,3.5-3.5v-2.7c0.5-0.2,1-0.4,1.5-0.6
	l1.9,1.9c1.4,1.4,3.6,1.4,5,0l2.5-2.5c1.4-1.4,1.4-3.6,0-5l-1.9-1.9c0.2-0.5,0.5-1,0.6-1.5H60z M53.2,60.1l2.8,2.8l-2.5,2.5
	l-2.8-2.8c-0.6-0.6-1.5-0.7-2.1-0.3c-1,0.6-2.1,1-3.2,1.3c-0.8,0.2-1.3,0.9-1.3,1.7v4h-3.5v-4c0-0.8-0.5-1.5-1.3-1.7
	c-1.1-0.3-2.2-0.7-3.2-1.3c-0.3-0.2-0.6-0.2-0.9-0.2c-0.5,0-0.9,0.2-1.3,0.5L31,65.4l-2.5-2.5l2.8-2.8c0.6-0.6,0.7-1.5,0.3-2.1
	c-0.6-1-1-2.1-1.3-3.2c-0.2-0.8-0.9-1.3-1.7-1.3h-4v-3.5h4c0.8,0,1.5-0.5,1.7-1.3c0.3-1.1,0.7-2.2,1.3-3.2c0.4-0.7,0.3-1.6-0.3-2.1
	l-2.8-2.8l2.5-2.5l2.8,2.8c0.6,0.6,1.5,0.7,2.1,0.3c1-0.6,2.1-1,3.2-1.3c0.8-0.2,1.3-0.9,1.3-1.7v-4H44v4c0,0.8,0.5,1.5,1.3,1.7
	c1.1,0.3,2.2,0.7,3.2,1.3c0.7,0.4,1.6,0.3,2.1-0.3l2.8-2.8l2.5,2.5l-2.8,2.8c-0.6,0.6-0.7,1.5-0.3,2.1c0.6,1,1,2.1,1.3,3.2
	c0.2,0.8,0.9,1.3,1.7,1.3h4v3.5h-4c-0.8,0-1.5,0.5-1.7,1.3c-0.3,1.1-0.7,2.2-1.3,3.2C52.5,58.6,52.6,59.5,53.2,60.1z"/>
<path d="M79.4,113.6V103c0-4.9-4-8.8-8.8-8.8h-1c1.7-1.9,2.7-4.4,2.7-7.1c0-5.9-4.8-10.6-10.6-10.6S51.1,81.2,51.1,87
	c0,2.7,1,5.2,2.7,7.1h-1c-4.9,0-8.8,4-8.8,8.8v10.6h3.5V103c0-2.9,2.4-5.3,5.3-5.3h17.7c2.9,0,5.3,2.4,5.3,5.3v10.6H79.4z M54.7,87
	c0-3.9,3.2-7.1,7.1-7.1s7.1,3.2,7.1,7.1s-3.2,7.1-7.1,7.1S54.7,90.9,54.7,87z"/>
<rect x="51.1" y="103" width="3.5" height="10.6"/>
<rect x="68.8" y="103" width="3.5" height="10.6"/>
<path d="M90.1,16.7c-0.2,0.6-0.1,1.3,0.4,1.8l4.7,4.8l-1.1,6.8c-0.1,0.7,0.2,1.3,0.7,1.7s1.3,0.4,1.9,0.1l5.7-3.2l5.7,3.2
	c0.3,0.1,0.6,0.2,0.9,0.2c0.4,0,0.7-0.1,1-0.3c0.6-0.4,0.8-1.1,0.7-1.7l-1.1-6.8l4.7-4.8c0.5-0.5,0.6-1.2,0.4-1.8
	c-0.2-0.6-0.8-1.1-1.4-1.2l-6.4-1L104,8.4c-0.3-0.6-0.9-1-1.6-1c-0.7,0-1.3,0.4-1.6,1l-2.9,6.1l-6.4,1
	C90.9,15.7,90.3,16.1,90.1,16.7z M99.4,17.9c0.6-0.1,1.1-0.5,1.3-1l1.7-3.6l1.7,3.6c0.3,0.5,0.8,0.9,1.3,1l3.9,0.6l-2.9,3
	c-0.4,0.4-0.6,1-0.5,1.5l0.7,4.1l-3.4-1.9c-0.3-0.1-0.6-0.2-0.9-0.2s-0.6,0.1-0.9,0.2l-3.4,1.9l0.7-4.1c0.1-0.6-0.1-1.1-0.5-1.5
	l-2.9-3L99.4,17.9z"/>
<path d="M45.8,92.3v-3.5h-5.3c-2.9,0-5.3-2.4-5.3-5.3v-8.8h-3.5v8.8c0,4.9,4,8.8,8.8,8.8H45.8z"/>
<path d="M91.8,103c0,2.9-2.4,5.3-5.3,5.3H83v3.5h3.5c4.9,0,8.8-4,8.8-8.8v-5.3h-3.5V103z"/>
<path d="M40.5,108.3H21c-2.9,0-5.3-2.4-5.3-5.3V26.9c0-2.9,2.4-5.3,5.3-5.3h46v3.5c0,0.6,0.3,1.2,0.9,1.5c0.3,0.2,0.6,0.2,0.9,0.2
	c0.3,0,0.6-0.1,0.9-0.3l8.8-5.3c0.5-0.3,0.9-0.9,0.9-1.5s-0.3-1.2-0.9-1.5L69.7,13c-0.5-0.3-1.2-0.3-1.8,0c-0.6,0.3-0.9,0.9-0.9,1.5
	V18H21c-4.9,0-8.8,4-8.8,8.8V103c0,4.9,4,8.8,8.8,8.8h19.5V108.3z M70.6,17.6l3.6,2.2L70.6,22V17.6z"/>
<path d="M63.5,41h23c2.9,0,5.3,2.4,5.3,5.3v1.8h3.5v-1.8c0-4.9-4-8.8-8.8-8.8h-23V41z"/>
</svg>
