<?xml version="1.0" encoding="utf-8"?>
<!-- Generator: Adobe Illustrator 23.0.0, SVG Export Plug-In . SVG Version: 6.00 Build 0)  -->
<svg version="1.1" id="Layer_1" xmlns="http://www.w3.org/2000/svg" xmlns:xlink="http://www.w3.org/1999/xlink" x="0px" y="0px"
	 viewBox="0 0 125 125" style="enable-background:new 0 0 125 125;" xml:space="preserve">
<title>majlobv2</title>
<path d="M10.8,77.5L10.8,77.5c-1.5,0-2.7-1.2-2.7-2.7c0.3-16.8,14-35.2,34.2-45.5c16.2-8.3,34.2-10.4,48-5.7c1.4,0.6,2,2.2,1.4,3.6
	c-0.5,1.2-1.9,1.9-3.2,1.5C76,24.4,59.6,26.4,44.7,34c-18.4,9.5-31,25.8-31.2,40.8C13.5,76.3,12.3,77.5,10.8,77.5z"/>
<path d="M45.3,105.8c-3.8,0-7.6-0.4-11.4-1.2c-1.5-0.3-2.5-1.7-2.2-3.2c0.3-1.5,1.7-2.5,3.2-2.2c0.1,0,0.1,0,0.2,0
	c12,2.7,26.5,0.3,39.8-6.5c1.3-0.7,3-0.2,3.7,1.1c0.7,1.3,0.2,3-1.1,3.7c0,0-0.1,0.1-0.1,0.1C67.5,102.9,56.5,105.7,45.3,105.8z"/>
<path d="M56.6,92.8c-5.1,0-9.3-4.1-9.3-9.3c0-5.1,4.1-9.3,9.3-9.3c5.1,0,9.3,4.1,9.3,9.3c0,3.5-1.9,6.7-5,8.3
	C59.5,92.5,58.1,92.8,56.6,92.8z M56.6,79.7c-0.6,0-1.2,0.1-1.7,0.4c-1.9,0.9-2.7,3.2-1.8,5.1s3.2,2.7,5.1,1.8
	c1.9-0.9,2.7-3.2,1.8-5.1C59.4,80.6,58.1,79.8,56.6,79.7L56.6,79.7z"/>
<path d="M31.7,91.8c-1.5,0-2.7-1.2-2.7-2.7c0-1,0.6-2,1.5-2.4c1.6-0.8,2.3-2.8,1.4-4.5c-0.8-1.6-2.8-2.3-4.5-1.4c0,0,0,0,0,0
	c-1.3,0.7-3,0.2-3.7-1.1c-0.7-1.3-0.2-3,1.1-3.7c0,0,0.1-0.1,0.1-0.1c4.3-2.2,9.6-0.5,11.8,3.8c2.2,4.3,0.5,9.6-3.8,11.8
	C32.5,91.7,32.1,91.8,31.7,91.8z"/>
<path d="M16.3,85.2c-1.6,0-3.2-0.5-4.5-1.4C8.2,81.4,7,76.2,8.6,69.1c0.3-1.5,1.8-2.4,3.3-2.1s2.4,1.8,2.1,3.3
	c-1.2,5.5-0.3,8.2,0.9,9c1.2,0.8,4.5,0.4,9.7-3.3c1.2-0.9,2.9-0.6,3.8,0.7c0.9,1.2,0.6,2.9-0.7,3.8C22.8,84,19,85.2,16.3,85.2z"/>
<path d="M34.7,104.7h-0.2c-3.7-0.3-7.5-3.6-8.6-7.7c-1.1-4.1,0.5-7.7,4.2-10.2c1.3-0.8,3-0.4,3.8,0.9c0.7,1.2,0.4,2.8-0.7,3.6
	c-1.8,1.2-2.4,2.6-2,4.2c0.5,1.8,1.9,3.2,3.7,3.7c1.5,0.1,2.7,1.3,2.6,2.8C37.5,103.6,36.2,104.8,34.7,104.7L34.7,104.7z"/>
<path d="M79.7,40.3c-1.2,0-2.3-0.7-2.9-1.8l0,0c-0.8-1.6-0.2-3.6,1.4-4.4c1.6-0.8,3.6-0.2,4.4,1.4c0.8,1.6,0.2,3.6-1.4,4.4
	C80.8,40.2,80.3,40.3,79.7,40.3L79.7,40.3z"/>
<path d="M62.9,40.7c-1.2,0-2.3-0.7-2.9-1.8l0,0c-0.8-1.6-0.2-3.6,1.4-4.4c1.6-0.8,3.6-0.2,4.4,1.4c0.8,1.6,0.2,3.6-1.4,4.4
	C63.9,40.6,63.4,40.7,62.9,40.7z"/>
<path d="M46.1,48.1c-1.8,0-3.3-1.5-3.3-3.3c0-1.8,1.5-3.3,3.3-3.3c1.2,0,2.4,0.7,2.9,1.8c0.8,1.6,0.2,3.6-1.5,4.4
	C47.1,47.9,46.6,48.1,46.1,48.1z"/>
<path d="M32.5,62.1c-1.8,0-3.3-1.5-3.3-3.3c0-1.8,1.5-3.3,3.3-3.3c1.8,0,3.3,1.5,3.3,3.3c0,1.2-0.7,2.3-1.8,2.9
	C33.6,62,33.1,62.1,32.5,62.1z"/>
<path d="M92.4,115.8c-0.2,0-0.4,0-0.6,0l-7.5-1.7c-1.3-0.3-2.2-1.5-2.1-2.9l2.9-39.3c0.8-10.1,5.2-19.8,11.8-25.8
	c0.7-0.6,1.6-0.9,2.5-0.7l7.5,1.6c0.9,0.2,1.6,0.8,1.9,1.6c3.5,8.2,3.5,18.9,0,28.4l-13.7,37C94.7,115.2,93.6,115.9,92.4,115.8z
	 M87.9,109.3l2.8,0.6l12.9-34.8c2.9-7.4,3.1-15.5,0.7-23.1l-4.6-1c-5.4,5.8-8.5,13.3-9,21.2L87.9,109.3z"/>
<path d="M108,40.7c-0.2,0-0.4,0-0.6,0l-6-1.4c-0.6-0.1-1.1-0.4-1.4-0.8c-4.2-4.6-4-13.5,0.5-19.1l8.2-10.2c0.9-1.2,2.7-1.4,3.8-0.4
	c0.5,0.4,0.8,0.9,0.9,1.5l3.2,12.7c1.7,6.9-1.8,15.1-7.5,17.5C108.8,40.6,108.4,40.7,108,40.7z M103.6,34.2l4.1,0.9
	c2.9-1.8,4.7-6.8,3.7-10.8l-1.9-7.3l-4.7,5.9C102.1,26.1,101.7,31.3,103.6,34.2z"/>
</svg>
