<?xml version="1.0" encoding="utf-8"?>
<!-- Generator: Adobe Illustrator 23.0.0, SVG Export Plug-In . SVG Version: 6.00 Build 0)  -->
<svg version="1.1" id="Layer_1" xmlns="http://www.w3.org/2000/svg" xmlns:xlink="http://www.w3.org/1999/xlink" x="0px" y="0px"
	 viewBox="0 0 125 125" style="enable-background:new 0 0 125 125;" xml:space="preserve">
<g>
	<rect x="39.4" y="102" width="46.1" height="6.6"/>
	<rect x="59.2" y="95.4" width="6.6" height="3.3"/>
	<path d="M62.5,77.3c4.5,0,8.2-3.7,8.2-8.2c0-2.6-1-5.1-2.7-7c-0.3-0.3-0.5-0.8-0.5-1.2V44.4h-9.9v16.5c0,0.5-0.2,0.9-0.5,1.2
		c-1.8,1.9-2.7,4.4-2.7,7C54.3,73.6,58,77.3,62.5,77.3z"/>
	<path d="M23,85.6H102V23H23V85.6z M90.5,67.4h-3.3v-3.3h3.3V67.4z M97.1,51h-3.3v-3.3h3.3V51z M77.3,41.1h21.4v3.3H77.3V41.1z
		 M77.3,47.7h13.2V51H77.3V47.7z M77.3,54.3h9.9v3.3h-9.9V54.3z M77.3,64.1h6.6v3.3h-6.6V64.1z M54.3,27.9h3.3v3.3h9.9v-3.3h3.3v9.9
		h-3.3v-3.3h-9.9v3.3h-3.3V27.9z M54.3,60.2V42.7c0-0.9,0.7-1.6,1.6-1.6h13.2c0.9,0,1.6,0.7,1.6,1.6v17.4c2.1,2.5,3.3,5.7,3.3,8.9
		c0,3.1-1.3,6.1-3.5,8.2h13.4v3.3H41.1v-3.3h13.4c-2.2-2.2-3.5-5.1-3.5-8.2C51,65.8,52.2,62.7,54.3,60.2z M39.4,37.8v-3.3h9.9v3.3
		H39.4z M36.1,27.9h13.2v3.3H36.1V27.9z M29.6,27.9h3.3v3.3h-3.3V27.9z M27.9,77.3h3.3V44.4h-3.3v-3.3h9.9v3.3h-3.3v32.9h3.3v3.3
		h-9.9V77.3z"/>
	<path d="M16.4,16.4v75.8h92.3V16.4H16.4z M105.3,87.2c0,0.9-0.7,1.6-1.6,1.6H21.3c-0.9,0-1.6-0.7-1.6-1.6V21.3
		c0-0.9,0.7-1.6,1.6-1.6h82.4c0.9,0,1.6,0.7,1.6,1.6V87.2z"/>
</g>
</svg>
