<?xml version="1.0" encoding="utf-8"?>
<!-- Generator: Adobe Illustrator 23.0.0, SVG Export Plug-In . SVG Version: 6.00 Build 0)  -->
<svg version="1.1" id="Layer_1" xmlns="http://www.w3.org/2000/svg" xmlns:xlink="http://www.w3.org/1999/xlink" x="0px" y="0px"
	 viewBox="0 0 125 125" style="enable-background:new 0 0 125 125;" xml:space="preserve">
<g>
	<g>
		<polygon points="42,46.5 53,46.5 53,40 35.5,40 35.5,56.2 42,56.2 		"/>
		<polygon points="78.9,46.5 78.9,56.2 85.4,56.2 85.4,40 67.9,40 67.9,46.5 		"/>
		<polygon points="42,83.4 42,71.2 35.5,71.2 35.5,89.9 53,89.9 53,83.4 		"/>
		<polygon points="78.9,83.4 67.9,83.4 67.9,89.9 85.4,89.9 85.4,71.2 78.9,71.2 		"/>
	</g>
	<circle cx="60.5" cy="64.9" r="7.5"/>
	<circle cx="49.2" cy="25" r="4.6"/>
	<circle cx="66" cy="12.4" r="4.6"/>
	<circle cx="17.2" cy="53.5" r="4.6"/>
	<circle cx="90" cy="102.7" r="4.6"/>
	<circle cx="19.3" cy="28.4" r="4.6"/>
	<circle cx="30.9" cy="102.7" r="4.6"/>
	<circle cx="19.3" cy="84.3" r="4.6"/>
	<circle cx="103.3" cy="84.3" r="4.6"/>
	<circle cx="66" cy="111.9" r="4.6"/>
	<circle cx="103.3" cy="64.9" r="4.6"/>
	<circle cx="94.1" cy="44.6" r="4.6"/>
	<circle cx="107.8" cy="33" r="4.6"/>
	<circle cx="80.1" cy="23.8" r="4.6"/>
</g>
</svg>
