<?xml version="1.0" encoding="utf-8"?>
<!-- Generator: Adobe Illustrator 23.0.0, SVG Export Plug-In . SVG Version: 6.00 Build 0)  -->
<svg version="1.1" id="Layer_1" xmlns="http://www.w3.org/2000/svg" xmlns:xlink="http://www.w3.org/1999/xlink" x="0px" y="0px"
	 viewBox="0 0 125 125" style="enable-background:new 0 0 125 125;" xml:space="preserve">
<g>
	<g>
		<g>
			<path d="M93,23.7C92.9,42,92.8,53,92.8,71.2c0,0.7,0.1,1.4,0.3,2.1c2,6.1,4.1,12.2,6.1,18.3c0.2,0.5,0.3,1,0.7,1.3
				c0.5,0.7,1.1,0.7,1.5,0c0.3-0.4,0.5-1,0.7-1.5c1.8-5.1,3.5-10.2,5.3-15.3c0.6-1.8,1.3-3.6,1.3-5.7c0-17.8,0.1-28.2,0.2-46.1
				c0-0.3,0-0.5,0-0.6c-5.3,0-10.6-0.1-15.8-0.1C93,23.6,93,23.7,93,23.7z M105.6,71.7c-0.1,0.3-0.3,0.7-0.3,1.1
				c-0.8,2.5-1.8,5-2.6,7.5c-0.2,0.6-0.4,0.8-0.9,0.8c-0.8-0.1-1.4,0-2.2-0.1c-0.2,0-0.5-0.3-0.6-0.4c-1-2.9-1.9-5.8-2.9-8.7
				c0-0.1,0-0.2,0-0.3C99.1,71.6,102.3,71.7,105.6,71.7z"/>
			<path d="M108.8,19.2c-5.4,0-10.6-0.1-15.8-0.1c0-0.1-0.1-0.3-0.1-0.4c0-2,0-4,0-6c0-2.4,1.3-4,3.4-4c3.1,0,6.1,0,9.2,0
				c2,0,3.4,1.6,3.4,4C108.9,14.9,108.9,17.1,108.8,19.2z"/>
		</g>
	</g>
	<rect x="13.9" y="29.9" width="70.6" height="8.5"/>
	<rect x="13.9" y="54.2" width="21.1" height="8.5"/>
	<rect x="43.2" y="54.2" width="41.4" height="8.5"/>
	<rect x="13.9" y="78.6" width="70.6" height="8.5"/>
	<rect x="46.4" y="102.9" width="62.5" height="8.5"/>
	<rect x="13.9" y="102.9" width="20.7" height="8.5"/>
</g>
</svg>
