<?xml version="1.0" encoding="utf-8"?>
<!-- Generator: Adobe Illustrator 23.0.0, SVG Export Plug-In . SVG Version: 6.00 Build 0)  -->
<svg version="1.1" id="Layer_1" xmlns="http://www.w3.org/2000/svg" xmlns:xlink="http://www.w3.org/1999/xlink" x="0px" y="0px"
	 viewBox="0 0 125 125" style="enable-background:new 0 0 125 125;" xml:space="preserve">
<title>Call-to-action</title>
<path d="M98.5,13H40.9c-9.9,0-18,8.1-18,18s8.1,18,18,18h57.7c9.9,0,18-8.1,18-18S108.5,13,98.5,13z M98.5,45.5H40.9
	c-7.9,0-14.4-6.5-14.4-14.4s6.5-14.4,14.4-14.4h57.7c7.9,0,14.4,6.5,14.4,14.4S106.5,45.5,98.5,45.5z"/>
<path d="M13.8,76.1h28.8v-3.6H13.8c-1.1,0-1.8-0.7-1.8-1.8V41.9c0-1.1,0.7-1.8,1.8-1.8h5.4v-3.6h-5.4c-3.1,0-5.4,2.3-5.4,5.4v28.8
	C8.4,73.8,10.8,76.1,13.8,76.1z"/>
<rect x="48.1" y="52.7" width="3.6" height="9"/>
<path d="M46.3,67.1v12.6h-1.8c-2,0-3.6,1.6-3.6,3.6v9.4l5.4,12.6v8.7h23.4v-8.8l1.8-7V79.7c0-2-1.6-3.6-3.6-3.6H55.3v-9
	c0-2-1.6-3.6-3.6-3.6h-1.8C47.9,63.5,46.3,65.1,46.3,67.1z M49.9,110.4v-3.6h16.2v3.6H49.9z M49.9,67.1h1.8v19.8h3.6v-7.2h1.8v7.2
	h3.6v-7.2h1.8v7.2h3.6v-7.2h1.8v17.8l-1.4,5.6H49.2L44.5,92v-8.7h1.8v7.2h3.6V67.1z"/>
<polygon points="28.3,49.1 28.3,57.4 25.9,55 23.4,57.6 30.1,64.2 36.7,57.6 34.2,55 31.9,57.4 31.9,49.1 "/>
<path d="M19.2,61.7v3.6c0,2,1.6,3.6,3.6,3.6h14.4c2,0,3.6-1.6,3.6-3.6v-3.6h-3.6v3.6H22.9v-3.6H19.2z"/>
<path d="M95.3,73.4l4.7-17.1h5.8v-3.6H100c-1.6,0-3.1,1.1-3.4,2.7l-1.4,4.5H81.1c-2,0-3.6,1.6-3.6,3.6c0,0.4,0,0.7,0.2,0.9l2.5,9
	c0.4,1.6,1.8,2.5,3.4,2.7h8.1C93.3,76.1,94.8,75,95.3,73.4z M91.7,72.5h-8.1l-2.5-9h13.2L91.7,72.5z"/>
<rect x="82.3" y="77.9" width="3.6" height="3.6"/>
<rect x="89.5" y="77.9" width="3.6" height="3.6"/>
<path d="M75.1,86.9h34.2c3.1,0,5.4-2.3,5.4-5.4V49.1h-3.6v32.4c0,1.1-0.7,1.8-1.8,1.8H75.1V86.9z"/>
<rect x="64.3" y="52.7" width="3.6" height="19.8"/>
<path d="M82.3,20.2H57.1c-2,0-3.6,1.6-3.6,3.6v14.4c0,2,1.6,3.6,3.6,3.6h25.2c2,0,3.6-1.6,3.6-3.6V23.9
	C85.9,21.9,84.3,20.2,82.3,20.2z M77.8,23.9l-8.1,5l-8.1-5H77.8z M57.1,38.3v-13l12.6,7.9l12.6-7.9v13H57.1z"/>
</svg>
