<?xml version="1.0" encoding="utf-8"?>
<!-- Generator: Adobe Illustrator 23.0.0, SVG Export Plug-In . SVG Version: 6.00 Build 0)  -->
<svg version="1.1" xmlns="http://www.w3.org/2000/svg" xmlns:xlink="http://www.w3.org/1999/xlink" x="0px" y="0px"
	 viewBox="0 0 125 125" style="enable-background:new 0 0 125 125;" xml:space="preserve">
<g id="Layer_2">
</g>
<g id="Layer_1">
	<g>
		<path d="M62.5,23.8c2.4,0,4.4-2,4.4-4.4v-10c0-2.5-2-4.4-4.4-4.4S58,7,58,9.4v10C58,21.7,60,23.8,62.5,23.8z"/>
		<path d="M41.3,26.2c0.8,1.4,2.3,2.3,3.8,2.3c0.7,0,1.6-0.2,2.3-0.6c2.2-1.2,2.9-4,1.7-6.1l-4.9-8.7c-1.2-2.2-4-2.9-6.1-1.7
			c-2.2,1.2-2.9,4-1.7,6.1L41.3,26.2z"/>
		<path d="M77.6,27.7c0.7,0.4,1.4,0.6,2.3,0.6c1.6,0,3-0.8,3.8-2.3l4.9-8.7c1.2-2.2,0.5-4.8-1.7-6.1c-2.2-1.2-4.8-0.5-6.1,1.7
			l-4.9,8.7C74.7,23.8,75.5,26.5,77.6,27.7z"/>
		<ellipse cx="62.5" cy="49.6" rx="16.6" ry="16.6"/>
		<path d="M103.5,40.4c-4.1-1.3-8.5,1-9.7,5l-3.8,11.9c-1.8,5.8-6.1,10.2-11.8,12.3c-2.6,1-5.4,1.4-8.2,1.4H55.2
			c-2.8,0-5.5-0.5-8.2-1.4c-5.7-2-10-6.5-11.8-12.3l-3.8-11.9c-1.3-4.1-5.7-6.4-9.7-5s-6.4,5.7-5,9.7L20.4,62
			c3.4,10.3,11.1,18.4,21.3,22.1c1.2,0.5,2.5,0.7,3.7,1v29.5c0,2.4,2,4.4,4.4,4.4h25.4c2.4,0,4.4-2,4.4-4.4V85.2
			c1.3-0.4,2.5-0.6,3.8-1.1c10.2-3.7,17.9-11.8,21.3-22.1l3.8-11.9C109.8,46,107.6,41.7,103.5,40.4z"/>
	</g>
</g>
</svg>
