<?xml version="1.0" encoding="utf-8"?>
<!-- Generator: Adobe Illustrator 23.0.0, SVG Export Plug-In . SVG Version: 6.00 Build 0)  -->
<svg version="1.1" id="Layer_1" xmlns="http://www.w3.org/2000/svg" xmlns:xlink="http://www.w3.org/1999/xlink" x="0px" y="0px"
	 viewBox="0 0 125 125" style="enable-background:new 0 0 125 125;" xml:space="preserve">
<g>
	<path d="M75.8,32.5v0.5h-8.3v-1.3c0-9.6,6.8-17.6,15.9-19.5C78.9,15.2,75.8,23,75.8,32.5z"/>
	<path d="M96.1,32.9H78.5c0.3-11.4,4.2-19.3,8.8-19.3C91.9,13.7,95.8,21.5,96.1,32.9z"/>
	<path d="M107.2,31.7v1.3h-8.3v-0.5c0-9.4-3.1-17.3-7.6-20.2C100.3,14.1,107.2,22.1,107.2,31.7z"/>
	<path d="M86,49.4c0.9,0.4,1.8,0.8,2.5,1.4V34.2H86V49.4z"/>
	<path d="M75.4,48.4v-2l3.5-0.5l3.5-9.9L80,35.1l-3,8.5l-10.4,1.5l0.3,2.5l6-0.8v2C73.7,48.6,74.5,48.5,75.4,48.4z"/>
	<path d="M48,29.7c0-2.5-2-4.4-4.4-4.4h-3.3c-0.4-4-3.8-7.1-7.9-7.1s-7.5,3.1-8,7.1H21c-2.5,0-4.4,2-4.4,4.4c0,2.4,2,4.4,4.4,4.4
		c6.9,0,16,0,22.6,0C46,34.1,48,32.1,48,29.7z"/>
	<path d="M56.1,12.5c1.3,1,1.5,3.4,1.5,4.2l1.3,0l1.2,0.3c0.2-0.8,1-3.1,2.5-3.8c0.8-0.4,1.9-0.2,3.1,0.6l1.3-2.1
		c-2-1.2-3.8-1.4-5.4-0.7c-0.9,0.4-1.7,1.1-2.2,1.8c-0.4-0.9-0.9-1.7-1.7-2.3c-1.4-1.1-3.2-1.3-5.4-0.6l0.7,2.4
		C54.3,11.9,55.3,12,56.1,12.5z"/>
	<path d="M111,10.9c0.9,0.5,1.3,2.2,1.3,2.7l1.2-0.1l1.2,0.1c0-0.4,0.4-2.2,1.3-2.7c0.5-0.3,1.2-0.2,2,0.2l1-2.3
		c-2.1-0.9-3.5-0.5-4.3-0.1c-0.5,0.3-1,0.7-1.3,1.2c-0.3-0.5-0.8-0.9-1.3-1.2c-0.8-0.5-2.3-0.9-4.3,0.1l1,2.3
		C109.8,10.7,110.5,10.7,111,10.9z"/>
	<path d="M15.7,48.2c-0.5,0.3-1,0.7-1.3,1.2c-0.3-0.5-0.8-0.9-1.3-1.2c-0.8-0.5-2.3-0.9-4.3,0.1l1,2.3c0.9-0.4,1.6-0.4,2-0.2
		c0.9,0.5,1.3,2.2,1.3,2.7l1.2-0.1l1.3,0.1c0.1-0.5,0.4-2.2,1.3-2.7c0.5-0.3,1.2-0.2,2,0.2l1-2.3C18,47.4,16.6,47.8,15.7,48.2z"/>
	<path d="M87.4,53c-5-3.9-14.4-1.9-21.6-0.4v26h23.7V54.5C88.9,54.1,88.2,53.6,87.4,53z M73,74h-4v-2.5h4C73,71.5,73,74,73,74z
		 M73,67.2h-4v-2.5h4C73,64.7,73,67.2,73,67.2z M73,60.3h-4v-2.5h4C73,57.8,73,60.3,73,60.3z M79.6,74h-4v-2.5h4
		C79.6,71.5,79.6,74,79.6,74z M79.6,67.2h-4v-2.5h4C79.6,64.7,79.6,67.2,79.6,67.2z M79.6,60.3h-4v-2.5h4
		C79.6,57.8,79.6,60.3,79.6,60.3z M86.2,74h-4v-2.5h4V74z M86.2,67.2h-4v-2.5h4V67.2z M86.2,60.3h-4v-2.5h4V60.3z"/>
	<path d="M118.5,110.3c-3-6.2-1.8-8.1-1.3-10.8c0.6-3.4-0.4-10.4-0.2-13.9c0.5-8.8,5-26.8-20.7-28.6c-1.3-0.1-2.6-0.3-4.2-1v25.2
		H63.3V53.2c-1.2,0.3-2.4,0.5-3.4,0.6c-14.5,2-18.5-9.5-24.7,4.1c0,0-1.4,3.3-4.7,5.8c-3.3,2.5-4.1,16.5-2.7,27.2
		c1.4,10.7-0.6,22.5-0.6,22.5s-0.6,6,1.9,5.9c0.9,0,1.6-0.9,1.5-1.9c-0.1-1,0-2.8,1-5.3c1.6-4.4,3.5-28.7,3.5-28.7s1.9,1.3,2.4,0.9
		c0.9-0.8-0.9-3.9,4.2-2.5s6.3-1.3,8.1-0.3c1.4,0.8,1.5,2.8,3.5,5.5c3.9,5.3-3.6,17.8-1.8,26.3c0.3,1.2,0.7,2.8-2.5,4.1
		c-1,0.4,2.7,2.9,8.4,2c1.3-0.2,2.2-1.6,1.8-2.9c-1.8-5.6,0.5-17.9,5.1-22.5c0,0,2.7,8.9,3.5,13.9c0.4,2.2,2.5,5.4,6.7,5.9l2.5,5.2
		c0,0,5.1,1.6,6.4-7.8c0.2-1.6-0.8-2.9-2.9-3c-2.4-0.1-5.2-1.4-5.3-3.8S73.7,95,76,93.5c4.7-3.1,10.5,2.6,13,5.5
		c0.9,1,1.3,2.3,1.4,3.6c0.1,3.2-0.2,9.3-3.5,11.6c-4.2,2.9,0.1,4.8,8.2,3.8c2.5-0.3,1.6-3,2-4.1c0.3-1,0.9-1.3,0-4
		c-1.6-4.7,2.1-15.8,6.2-12.8c1.2,0.8,10.4,8.1,6.3,19.5c0,0,4,4.4,10.9,0.4C120.3,117,121.5,116.5,118.5,110.3z M36.7,71.2
		c-1.9,0-3.5-1.6-3.5-3.5c0-1.9,1.6-3.5,3.5-3.5c1.9,0,3.5,1.6,3.5,3.5C40.1,69.6,38.6,71.2,36.7,71.2z M50.7,77.3
		c-3.8,0-6.8-3.8-6.8-8.5h2.5c0,3.3,1.9,6,4.3,6c2.4,0,4.3-2.7,4.3-6c0-3.3-1.9-6-4.3-6v-2.5c3.8,0,6.8,3.8,6.8,8.5
		C57.5,73.5,54.4,77.3,50.7,77.3z M105,66c-0.4-0.3-0.7-0.5-1-0.7c-2.1-1.3-3.8-1.9-3.8-1.9l0.7-2.4c0.1,0,2.1,0.6,4.5,2.2
		c0.4,0.2,0.8,0.5,1.2,0.8L105,66z M113.1,82.3l-2.5-0.4c1.1-6.1-0.4-11-4.2-14.7l1.7-1.8C111.3,68.4,114.6,73.7,113.1,82.3z"/>
	<path d="M21,22.8h1.3c0.7-2,2-3.8,3.6-5c-1.2-1.4-3-2.3-4.9-2.3c-3.6,0-6.4,2.9-6.4,6.4c0,1.3,0.4,2.5,1,3.5
		C16.9,23.8,18.8,22.8,21,22.8z"/>
	<rect x="19.8" y="5.4" width="2.5" height="5.7"/>
	<rect x="10.1" y="9.4" transform="matrix(0.707 -0.7072 0.7072 0.707 -5.313 11.6002)" width="2.5" height="5.7"/>
	<rect x="4.5" y="20.6" width="5.7" height="2.5"/>
	<rect x="8.5" y="30.3" transform="matrix(0.7071 -0.7071 0.7071 0.7071 -18.9797 17.2591)" width="5.7" height="2.5"/>
	<rect x="27.8" y="11" transform="matrix(0.7071 -0.7071 0.7071 0.7071 0.3482 25.2649)" width="5.7" height="2.5"/>
</g>
</svg>
