<?xml version="1.0" encoding="utf-8"?>
<!-- Generator: Adobe Illustrator 23.0.0, SVG Export Plug-In . SVG Version: 6.00 Build 0)  -->
<svg version="1.1" id="Layer_1" xmlns="http://www.w3.org/2000/svg" xmlns:xlink="http://www.w3.org/1999/xlink" x="0px" y="0px"
	 viewBox="0 0 125 125" style="enable-background:new 0 0 125 125;" xml:space="preserve">
<g>
	<path d="M46.7,33C37.2,29.6,26,39.7,24,48.5c-2,8.7,1,21.7,11.9,21.6c7,0,13.4-4.4,16.5-10.4c0.1-0.1,0.1-0.3,0.1-0.4v-0.1
		C55.8,50.6,57.4,37,46.7,33z M49.6,57.4C49.6,57.6,49.6,57.6,49.6,57.4c-0.1,0.3-0.1,0.3-0.1,0.4c-2.4,4.7-7.4,8.1-12.8,8.1
		c-8.5,0-10.9-10.2-9.2-16.9c1.7-7,10.4-14.9,17.8-12.1C53.4,40.1,52.1,50.7,49.6,57.4z"/>
	<path d="M63.6,64.8c-14.3-2.1-15.3,8.4-15.2,19.7c0.1,8.2-0.4,17.9,9.9,18.6c9.5,0.7,14.1-2.6,15.5-11.8c0-0.1,0.1-0.4,0.1-0.6
		C74.4,80.1,77.4,66.8,63.6,64.8z"/>
	<path d="M110.5,75.7c4.7-8.7,6.8-18,3.6-28c-6.8-21-21.7-43-46.3-43.6C42.3,3.4,16,21.2,9.9,46.2c-1.4,8.2,0,17.8,3.6,27.3
		c-0.3,0.1-0.6,0.4-0.7,0.9c0,0.1-0.1,0.3-0.1,0.4c0,0,0,0,0,0.1c-2.1,6,2.6,11.4,3.7,17.3c1.1,6.5-3.3,15.3,0.4,21.3
		c4.4,7.4,22,9,26.9,1.6c0.6-0.9,1-1.8,1.3-2.8c10.5,5.8,22.2,7,33.1-0.1l0,0c0.3,1.1,0.7,2.1,1.3,3.1c5,7.4,22.4,5.8,26.9-1.6
		c3.7-6.1-0.7-14.8,0.4-21.3C107.5,86.4,111.8,81.3,110.5,75.7z M34.5,114.2c-5,1.1-13.5,0.3-14.5-6.1c-0.4-3.1,1.3-7.1,1.4-10.4
		c0.1-3.3-0.3-6.4-1.1-9.5c-0.7-2.6-4.4-8.8-3.6-11.5c4.7-4.7,12.1-2.4,15.5,2.1c2.6,3.3,4.4,7.2,5.8,11.2c1.4,4.1,2.3,8.5,2.4,12.9
		C40.6,108.3,40.8,113,34.5,114.2z M77.6,110.5L77.6,110.5L77.6,110.5z M102.8,87c-0.9,3.1-1.6,6.3-1.6,9.5c0,3.7,2,8.1,1.4,11.6
		c-1,6.1-9.7,7.4-14.5,6.1c-6-1.6-6.1-5.7-6-11.2c0.1-4,0.9-8.1,2.1-11.8c1.3-3.8,3-7.5,5.1-10.9c1-1.6,2.3-3.6,3.8-4.5
		c3.1-2,9.8-1.6,12.6,1C106.7,79.3,103.6,84.8,102.8,87z M96,70.1c-5.8,1.3-8.8,4.8-11.8,9.8C81,85.4,78.8,91.8,78,98.2
		c-0.3,2.3-0.7,5.3-0.7,8.2l0,0c-9.7,7-21.6,6.1-31.8,0.3c0-3-0.3-5.8-0.6-8.2c-0.9-6.5-3-12.9-6.3-18.6c-3-5.1-6-8.5-11.8-9.8
		c-3.7-0.9-6.7-0.9-9.5,0.6l0,0c-2.8-7.4-4.3-15.1-2.8-23.2c3.3-12.9,11.6-23.3,23.2-30c10.9-6.4,26.6-11.4,38.9-6.8
		c13.2,4.8,22.2,13.5,28,26.1c3,6.4,6.7,13.6,6.7,20.7c0,5-1.8,9.5-4.1,13.9C103.8,69.2,100.4,69.1,96,70.1z"/>
	<path d="M100.1,48.6c-2-8.5-12.6-18.6-22-15.8c-11.4,3.4-9.9,17.8-6.5,26.6v0.1c0,0.1,0.1,0.3,0.1,0.4c3.1,6.1,9.4,10.2,16.3,10.4
		C99.1,70.3,102.1,57.1,100.1,48.6z M87.5,65.9c-5.4-0.1-10.2-3.4-12.6-8.1c0-0.1-0.1-0.3-0.1-0.3s0,0,0-0.1
		C72.2,50.6,71,39.5,79.8,37c7.2-2.1,15.5,5.7,17,12.2C98.3,55.7,95.9,66.1,87.5,65.9z"/>
</g>
</svg>
