<svg xmlns="http://www.w3.org/2000/svg" viewBox="0 0 112.1 103.48"><title>galls-law</title><path d="M79,13.15A19.37,19.37,0,0,1,98.31,32.49a19.15,19.15,0,0,1-2,8.57,19.32,19.32,0,0,1,0,38.55,19.15,19.15,0,0,1,2,8.57A19.33,19.33,0,0,1,63,99.14a19.33,19.33,0,0,1-33.27-19.5A19.32,19.32,0,0,1,29.7,41,19.32,19.32,0,0,1,63,21.61a19.33,19.33,0,0,1,16-8.46m0-4.56a23.88,23.88,0,0,0-16,6.18A23.88,23.88,0,0,0,23.21,32.64a23.56,23.56,0,0,0,.5,4.83,23.88,23.88,0,0,0,0,45.74,24.31,24.31,0,0,0-.52,5A23.89,23.89,0,0,0,63,106,23.89,23.89,0,0,0,102.3,83a23.87,23.87,0,0,0,0-45.41A23.9,23.9,0,0,0,79,8.59Z" transform="translate(-6.71 -8.59)"/><circle cx="56.05" cy="51.74" r="13.66"/><circle cx="40.4" cy="24.05" r="13.66"/><circle cx="72.25" cy="23.9" r="13.66"/><circle cx="88.2" cy="51.74" r="13.66"/><circle cx="72.25" cy="79.59" r="13.66"/><circle cx="40.4" cy="79.59" r="13.66"/><circle cx="23.9" cy="51.74" r="13.66"/></svg>