<?xml version="1.0" encoding="utf-8"?>
<!-- Generator: Adobe Illustrator 23.0.0, SVG Export Plug-In . SVG Version: 6.00 Build 0)  -->
<svg version="1.1" xmlns="http://www.w3.org/2000/svg" xmlns:xlink="http://www.w3.org/1999/xlink" x="0px" y="0px"
	 viewBox="0 0 125 125" style="enable-background:new 0 0 125 125;" xml:space="preserve">
<g id="Layer_2">
</g>
<g id="Layer_1">
	<g>
		<path d="M77.7,44.5c0-6.2,5.2-11.4,11.4-11.4H105l-5.5,5.3c-1.5,1.4-1.5,3.7-0.1,5.3c0.7,0.7,1.6,1.2,2.7,1.2
			c0.9,0,1.9-0.4,2.6-1.1l11.7-11.4c1.5-1.4,1.5-3.7,0.1-5.3l-11.4-11.8c-1.4-1.5-3.7-1.5-5.3-0.1c-1.5,1.4-1.5,3.7-0.1,5.3l5,5.3
			H89.1c-10.3,0-18.7,8.4-18.7,18.7v9.1l7.4,1.3C77.7,55,77.7,44.5,77.7,44.5z"/>
		<path d="M117.1,66.9c-1.3-1.8-3.5-2.7-5.6-2.3l-18,3c0,0.5-0.1,0.8-0.1,1.3c-0.9,4.8-5,8.4-10,8.8l-1.2,0.1
			c-6.4,0.5-13.1,0.4-19.6-0.4l-5.3-0.6c-1.6-0.1-2.8-1.6-2.7-3.3c0.1-1.6,1.5-2.8,3.3-2.7l5.3,0.6c6.1,0.6,12.4,0.7,18.5,0.4
			l1.2-0.1c2.2-0.1,4.1-1.8,4.6-4c0.2-1.3,0-2.7-0.8-3.7c-0.7-1.1-1.9-1.9-3.2-2.1l-27.5-4.8c-3-0.6-6.2,0-9,1.4L21.3,72l21.3,21.3
			l23,5.5c4,0.9,8.2,0.4,11.8-1.8l37.8-21.8c1.4-0.8,2.5-2.1,2.8-3.7C118.4,69.8,118,68.3,117.1,66.9z"/>
		<path d="M7.6,84.6c-0.5,0.5-0.7,1.1-0.7,1.8c0,0.7,0.2,1.3,0.7,1.8L24.4,105c0.9,0.9,2.6,0.9,3.5,0l9-9L16.6,75.6L7.6,84.6z"/>
	</g>
</g>
</svg>
