<?xml version="1.0" encoding="utf-8"?>
<!-- Generator: Adobe Illustrator 23.0.0, SVG Export Plug-In . SVG Version: 6.00 Build 0)  -->
<svg version="1.1" id="Layer_1" xmlns="http://www.w3.org/2000/svg" xmlns:xlink="http://www.w3.org/1999/xlink" x="0px" y="0px"
	 viewBox="0 0 125 125" style="enable-background:new 0 0 125 125;" xml:space="preserve">
<g>
	<path d="M108.4,91.7l-14-4v-3.6c1.9-1.5,3.3-3.5,4.3-5.7h1c3.9,0,7.1-3.2,7.1-7.1V57.2c0-11.2-8.7-20.3-19.6-21.1
		C81.8,19.3,66,7.7,48.4,7.7C25.9,7.7,7.7,25.9,7.7,48.4S25.9,89,48.4,89c9.1,0,17.9-3.1,25-8.7c0.9,1.4,2,2.7,3.3,3.8v3.6l-14,4.1
		c-5.3,1.5-8.9,6.4-8.9,11.9v13.7h63.6v-13.7C117.3,98.1,113.6,93.3,108.4,91.7z M95.7,91.8l-2.4,8.3l-5.2-4.2l4.9-4.9L95.7,91.8z
		 M85,106.7h1l2.4,7.1h-5.7L85,106.7z M86.5,103.2h-2.1l-2.2-2.2l3.2-2.6l3.2,2.6L86.5,103.2z M99.6,74.9h-0.1
		c0.1-0.6,0.1-1.2,0.1-1.8v-5.3c2,0,3.5,1.6,3.5,3.5C103.2,73.3,101.6,74.9,99.6,74.9z M103.2,57.2v8.1c-1-0.6-2.2-1-3.5-1h-0.3
		c-0.7-2.1-2.7-3.5-5-3.5H88c-1.4,0-2.7-0.3-4-0.9l-3.9-2c-0.8-0.4-1.8-0.6-2.7-0.6c-3.3,0-6.1,2.7-6.1,6.1v1c-1.3,0-2.5,0.4-3.5,1
		V52.2c0-2.6,1.6-4.9,4.1-5.7l0.5-0.2l0.3-0.4c3-4,7.7-6.4,12.7-6.4C95.2,39.5,103.2,47.4,103.2,57.2z M64.3,52.2v19.2
		c0,0.8,0.2,1.5,0.4,2.2c-4.9,3.2-10.5,4.9-16.3,4.9c-16.6,0-30.1-13.5-30.1-30.1s13.5-30.1,30.1-30.1c12.8,0,24,7.9,28.2,19.9
		c-2.4,1.3-4.6,3-6.4,5.2C66.7,44.8,64.3,48.3,64.3,52.2z M67.8,71.3c0-2,1.6-3.5,3.5-3.5v5.3c0,0.6,0,1.2,0.1,1.8h-0.1
		C69.4,74.9,67.8,73.3,67.8,71.3z M11.2,48.4c0-20.5,16.7-37.1,37.1-37.1c15.8,0,29.9,10.1,35,24.9c-1.2,0.1-2.4,0.4-3.5,0.7
		c-4.8-13.3-17.3-22.1-31.5-22.1c-18.5,0-33.6,15.1-33.6,33.6s15.1,33.6,33.6,33.6c6.5,0,12.8-1.9,18.2-5.4c1,0.9,2.3,1.6,3.7,1.8
		c-6.3,4.6-14,7.2-21.9,7.2C27.9,85.5,11.2,68.8,11.2,48.4z M74.9,73.1v-9.9c0-1.4,1.1-2.5,2.5-2.5c0.4,0,0.8,0.1,1.1,0.3l3.9,2
		c1.7,0.9,3.6,1.3,5.5,1.3h6.3c1,0,1.8,0.8,1.8,1.8v7.1c0,5.9-4.8,10.6-10.6,10.6S74.9,79,74.9,73.1z M85.5,87.3
		c1.9,0,3.7-0.4,5.3-1v2.1l-5.3,5.3l-5.3-5.3v-2.1C81.8,86.9,83.6,87.3,85.5,87.3z M77.9,91l4.9,4.9l-5.2,4.2l-2.4-8.3L77.9,91z
		 M57.2,103.6c0-3.9,2.6-7.4,6.4-8.5l8.2-2.4l3.8,13.4l3.8-3l2.2,2.2l-2.8,8.4H67.8v-8.8h-3.5v8.8h-7.1V103.6z M113.8,113.8h-7.1
		v-8.8h-3.5v8.8H92.1l-2.8-8.4l2.2-2.2l3.8,3l3.8-13.4l8.2,2.4c3.8,1.1,6.4,4.6,6.4,8.5V113.8z"/>
	<path d="M50.1,43.4V21.8h-3.5v21.5c-2.1,0.7-3.5,2.7-3.5,5c0,0.9,0.2,1.7,0.6,2.4L32.9,63.1l2.7,2.3l10.7-12.2
		c0.7,0.3,1.4,0.4,2.1,0.4c2.9,0,5.3-2.4,5.3-5.3C53.7,46.1,52.2,44.1,50.1,43.4z M48.4,50.1c-1,0-1.8-0.8-1.8-1.8
		c0-1,0.8-1.8,1.8-1.8c1,0,1.8,0.8,1.8,1.8C50.1,49.3,49.3,50.1,48.4,50.1z"/>
	<path d="M11,71.9l-3.3-5.2v17h3.5v-5.4c9,11.2,22.5,17.7,37.1,17.7v-3.5C33.1,92.6,19.1,84.8,11,71.9z"/>
	<rect x="57.2" y="46.6" width="3.5" height="3.5"/>
	<rect x="36" y="46.6" width="3.5" height="3.5"/>
</g>
</svg>
