<?xml version="1.0" encoding="utf-8"?>
<!-- Generator: Adobe Illustrator 23.0.0, SVG Export Plug-In . SVG Version: 6.00 Build 0)  -->
<svg version="1.1" id="Layer_1" xmlns="http://www.w3.org/2000/svg" xmlns:xlink="http://www.w3.org/1999/xlink" x="0px" y="0px"
	 viewBox="0 0 125 125" style="enable-background:new 0 0 125 125;" xml:space="preserve">
<path d="M9.2,9.7V62h19.1c0.3,0,0.4-0.4,0.3-0.6c-0.3-0.3-0.4-0.5-0.9-1.1c-1-1.3-1.9-3.4-1.8-6c0.2-2.8,1.6-5,3.4-6.3
	c1.8-1.4,4-2,6-2c2,0,4.2,0.7,6,2c1.8,1.4,3.3,3.6,3.4,6.3c0.2,2.6-0.8,4.7-1.8,6c-0.5,0.7-0.6,0.8-0.9,1.1C42,61.6,42,62,42.4,62
	h19.1V43c0-2,1.2-3.3,2.6-3c1.2,0.3,2.8,3.5,7.1,3.2c4.3-0.3,6.5-4.3,6.5-7.4c0-3.1-2.2-7.2-6.5-7.4c-4.3-0.3-5.9,2.9-7.1,3.2
	c-1.4,0.4-2.6-1-2.6-2.9v-19H9.2z"/>
<path d="M35.3,47.8c-3.1,0-7.2,2.2-7.4,6.5c-0.3,4.3,2.9,5.9,3.2,7.1c0.4,1.4-1,2.6-2.9,2.6h-19v52.3h52.3V97.2
	c0-0.3-0.4-0.4-0.6-0.3c-0.3,0.3-0.5,0.4-1.1,0.9c-1.3,1-3.4,1.9-6,1.8c-2.8-0.2-5-1.6-6.3-3.4c-1.4-1.8-2-4-2-6c0-2,0.7-4.2,2-6
	c1.4-1.8,3.6-3.3,6.3-3.4c2.6-0.2,4.7,0.8,6,1.8c0.7,0.5,0.8,0.6,1.1,0.9c0.2,0.2,0.6,0.1,0.6-0.3V64h-19c-2,0-3.3-1.2-3-2.6
	c0.3-1.2,3.5-2.8,3.2-7.1C42.5,50,38.5,47.8,35.3,47.8z"/>
<path d="M63.5,64v19c0,2-1.2,3.3-2.6,3c-1.2-0.3-2.8-3.5-7.1-3.2c-4.3,0.3-6.5,4.3-6.5,7.4s2.2,7.2,6.5,7.4c4.3,0.3,5.9-2.9,7.1-3.2
	c1.4-0.4,2.6,1,2.6,2.9v19h52.3V64H96.3c-1.8,0-3.1,1.1-2.7,2.4c0.3,1.1,3.2,2.6,3,6.6c-0.2,4-4,6-6.9,6s-6.7-2-6.9-6
	c-0.2-4,2.7-5.5,3-6.6c0.4-1.3-0.9-2.4-2.7-2.4L63.5,64z"/>
</svg>
