<?xml version="1.0" encoding="utf-8"?>
<!-- Generator: Adobe Illustrator 23.0.0, SVG Export Plug-In . SVG Version: 6.00 Build 0)  -->
<svg version="1.1" id="Layer_1" xmlns="http://www.w3.org/2000/svg" xmlns:xlink="http://www.w3.org/1999/xlink" x="0px" y="0px"
	 viewBox="0 0 125 125" style="enable-background:new 0 0 125 125;" xml:space="preserve">
<g>
	<rect x="20" y="103" width="3.4" height="3.4"/>
	<rect x="26.8" y="103" width="3.4" height="3.4"/>
	<rect x="33.6" y="103" width="3.4" height="3.4"/>
	<rect x="91.4" y="103" width="13.6" height="3.4"/>
	<path d="M111.8,96.2V40.1c0-4.7-3.8-8.5-8.5-8.5h-5.1c0-13.1-10.7-23.8-23.8-23.8S50.6,18.5,50.6,31.6H21.7c-4.7,0-8.5,3.8-8.5,8.5
		v56.1H9.8v8.5c0,4.7,3.8,8.5,8.5,8.5h88.4c4.7,0,8.5-3.8,8.5-8.5v-8.5H111.8z M103.3,35c2.8,0,5.1,2.3,5.1,5.1v56.1H105V41.8
		c0-1.9-1.5-3.4-3.4-3.4h-4.4c0.3-1.1,0.6-2.2,0.7-3.4H103.3z M55,25.3L73,32.9l6.2,18.5c-1.5,0.4-3.2,0.6-4.8,0.6
		C63.2,52,54,42.8,54,31.6C54,29.4,54.3,27.3,55,25.3z M82.5,50.3L76.4,32L90,18.4c3,3.6,4.8,8.1,4.8,13.2
		C94.8,40,89.7,47.2,82.5,50.3z M74.4,11.2c5,0,9.6,1.8,13.2,4.8L74,29.6l-17.7-7.4C59.7,15.7,66.5,11.2,74.4,11.2z M16.6,40.1
		c0-2.8,2.3-5.1,5.1-5.1h29.2c0.2,1.2,0.4,2.3,0.7,3.4H23.4c-1.9,0-3.4,1.5-3.4,3.4v54.4h-3.4V40.1z M111.8,104.7
		c0,2.8-2.3,5.1-5.1,5.1H18.3c-2.8,0-5.1-2.3-5.1-5.1v-5.1h35c2.4,2.2,5.6,3.4,8.9,3.4h10.8c3.3,0,6.4-1.2,8.9-3.4h21.4v-3.4H75.4
		l-0.5,0.5c-1.9,1.9-4.4,2.9-7,2.9H57.1c-2.6,0-5.1-1-7-2.9l-0.5-0.5H23.4V41.8h29.5c3.8,8,12,13.6,21.5,13.6s17.7-5.6,21.5-13.6
		h5.7v57.8h10.2V104.7z"/>
	<path d="M93.1,79.2c-1,0-2,0.3-2.8,0.9l-5.9-4.4c0.2-0.5,0.3-1,0.3-1.5c0-2.8-2.3-5.1-5.1-5.1s-5.1,2.3-5.1,5.1
		c0,0.6,0.1,1.1,0.3,1.7l-9.5,7.6c-0.8-0.5-1.7-0.8-2.7-0.8c-1.1,0-2.2,0.4-3,1l-7.3-4.9c0.1-0.4,0.2-0.8,0.2-1.2
		c0-2.8-2.3-5.1-5.1-5.1s-5.1,2.3-5.1,5.1c0,0.4,0.1,0.8,0.2,1.2l-7.3,4.9c-0.9-0.6-1.9-1-3-1c-2.8,0-5.1,2.3-5.1,5.1
		s2.3,5.1,5.1,5.1s5.1-2.3,5.1-5.1c0-0.4-0.1-0.8-0.2-1.2l7.3-4.9c0.9,0.6,1.9,1,3,1s2.2-0.4,3-1l7.3,4.9c-0.1,0.4-0.2,0.8-0.2,1.2
		c0,2.8,2.3,5.1,5.1,5.1s5.1-2.3,5.1-5.1c0-0.6-0.1-1.1-0.3-1.7l9.5-7.6c0.8,0.5,1.7,0.8,2.7,0.8c1,0,2-0.3,2.8-0.9l5.9,4.4
		c-0.2,0.5-0.3,1-0.3,1.5c0,2.8,2.3,5.1,5.1,5.1s5.1-2.3,5.1-5.1S95.9,79.2,93.1,79.2z M31.9,89.4c-0.9,0-1.7-0.8-1.7-1.7
		s0.8-1.7,1.7-1.7c0.9,0,1.7,0.8,1.7,1.7S32.8,89.4,31.9,89.4z M47.2,79.2c-0.9,0-1.7-0.8-1.7-1.7s0.8-1.7,1.7-1.7s1.7,0.8,1.7,1.7
		S48.1,79.2,47.2,79.2z M62.5,89.4c-0.9,0-1.7-0.8-1.7-1.7s0.8-1.7,1.7-1.7c0.9,0,1.7,0.8,1.7,1.7S63.4,89.4,62.5,89.4z M79.5,75.8
		c-0.9,0-1.7-0.8-1.7-1.7s0.8-1.7,1.7-1.7s1.7,0.8,1.7,1.7S80.4,75.8,79.5,75.8z M93.1,86c-0.9,0-1.7-0.8-1.7-1.7
		c0-0.9,0.8-1.7,1.7-1.7s1.7,0.8,1.7,1.7C94.8,85.3,94.1,86,93.1,86z"/>
	<path d="M54,45.2H26.8V69H54V45.2z M50.6,65.6H30.2v-17h20.4V65.6z"/>
	<rect x="33.6" y="52" width="13.6" height="3.4"/>
	<rect x="33.6" y="58.8" width="13.6" height="3.4"/>
	<rect x="57.4" y="62.2" width="3.4" height="3.4"/>
	<rect x="64.2" y="62.2" width="34" height="3.4"/>
</g>
</svg>
