<?xml version="1.0" encoding="utf-8"?>
<!-- Generator: Adobe Illustrator 23.0.0, SVG Export Plug-In . SVG Version: 6.00 Build 0)  -->
<svg version="1.1" id="Layer_1" xmlns="http://www.w3.org/2000/svg" xmlns:xlink="http://www.w3.org/1999/xlink" x="0px" y="0px"
	 viewBox="0 0 125 125" style="enable-background:new 0 0 125 125;" xml:space="preserve">
<g>
	<path d="M114.3,14.7H10.7c-0.7,0-1.3,0.6-1.3,1.3v13.4v65.8c0,0.7,0.6,1.3,1.3,1.3h26.6c0.7,0,1.3-0.6,1.3-1.3s-0.6-1.3-1.3-1.3H12
		V30.8h101v63.1H90.4c-0.7,0-1.3,0.6-1.3,1.3s0.6,1.3,1.3,1.3h23.9c0.7,0,1.3-0.6,1.3-1.3V29.4V16C115.6,15.3,115,14.7,114.3,14.7z
		 M12,28.1V17.3h101v10.8H12z"/>
	<path d="M19.6,18.9c-2.1,0-3.8,1.7-3.8,3.8c0,2.1,1.7,3.8,3.8,3.8s3.8-1.7,3.8-3.8C23.3,20.6,21.6,18.9,19.6,18.9z M19.6,23.9
		c-0.6,0-1.1-0.5-1.1-1.2c0-0.6,0.5-1.2,1.1-1.2s1.1,0.5,1.1,1.2C20.7,23.4,20.2,23.9,19.6,23.9z"/>
	<path d="M29.1,18.9c-2.1,0-3.8,1.7-3.8,3.8c0,2.1,1.7,3.8,3.8,3.8s3.8-1.7,3.8-3.8C32.8,20.6,31.1,18.9,29.1,18.9z M29.1,23.9
		c-0.6,0-1.1-0.5-1.1-1.2c0-0.6,0.5-1.2,1.1-1.2s1.1,0.5,1.1,1.2C30.2,23.4,29.7,23.9,29.1,23.9z"/>
	<path d="M38.5,18.9c-2.1,0-3.8,1.7-3.8,3.8c0,2.1,1.7,3.8,3.8,3.8s3.8-1.7,3.8-3.8C42.3,20.6,40.6,18.9,38.5,18.9z M38.5,23.9
		c-0.6,0-1.1-0.5-1.1-1.2c0-0.6,0.5-1.2,1.1-1.2s1.1,0.5,1.1,1.2C39.7,23.4,39.2,23.9,38.5,23.9z"/>
	<path d="M79.1,86.2c-0.2-0.3-0.5-0.4-0.9-0.5c-0.4,0-0.7,0.1-1,0.3l-0.1,0.1c0-1.3-0.5-2.7-1.4-3.8L65.2,69.7
		c-0.8-1-1.9-1.6-3.2-1.7c-1.2-0.1-2.5,0.3-3.4,1.1c-0.9,0.7-1.4,1.7-1.6,2.8c-0.2,0-0.4-0.1-0.5-0.1c-0.6-0.1-1.2,0-1.8,0.2
		c-0.6,0.2-1.2,0.5-1.7,0.9c-0.8,0.7-1.3,1.5-1.5,2.5c-0.6-0.2-1.3-0.2-1.9-0.1c-0.9,0.1-1.7,0.4-2.4,1c0,0-0.1,0.1-0.1,0.1l0,0
		c0,0,0,0.1-0.1,0.1c0,0,0,0-0.1,0c-0.3,0.2-0.5,0.5-0.6,0.6c-0.3,0.3-0.5,0.7-0.6,1l-4-4.8c-0.8-1-1.9-1.6-3.2-1.7
		c-0.9-0.1-1.9,0.1-2.8,0.6c-0.2,0.1-0.3,0.2-0.5,0.4c-1.4,1.1-2,3.1-1.5,4.9c0.2,0.7,0.5,1.4,1,2l3.2,3.8c0,0,0,0,0,0c0,0,0,0,0,0
		l6.1,7.3l-0.4,4.4c0,0,0,0,0,0c0,0,0,0,0,0l-0.1,1c-0.3,3.5,2.3,6.6,5.8,7l3.9,0.3c0.4,0,0.8,0,1.2,0c0.6,0,1.3-0.1,1.9-0.1
		c-0.5,0.5-0.6,1.3-0.1,1.8l4.4,5.4c1.8,2.1,4.2,3.5,7,3.7c0.3,0,0.7,0,1,0c2.4,0,4.7-0.8,6.5-2.3l10.9-9c2.3-1.9,2.6-5.2,0.7-7.5
		L79.1,86.2z M53.4,100.8l-3.9-0.3c-2-0.2-3.6-2-3.4-4.1l0.1-1v0l0.2-1.7l1,1.2c0.3,0.3,0.6,0.5,1,0.5c0.3,0,0.6-0.1,0.8-0.3
		c0.6-0.5,0.6-1.3,0.2-1.9l-3.1-3.7c0,0,0,0,0,0l-6.4-7.7c0,0,0,0,0,0L37,78.3l-0.4-0.4c-0.2-0.2-0.3-0.5-0.4-0.9
		c-0.2-0.8,0-1.7,0.6-2.1c0.1-0.1,0.2-0.1,0.3-0.2c0.4-0.2,0.8-0.3,1.2-0.3c0.5,0,1,0.3,1.4,0.7l6.7,8c0.1,0.2,0.3,0.3,0.4,0.3
		c0.1,0,0.1,0,0.2,0c0.1,0,0.2,0.1,0.4,0.1c0,0,0,0,0.1,0c0.1,0,0.2,0,0.3,0c0.1,0,0.1,0,0.2,0c0.2-0.1,0.3-0.1,0.4-0.2c0,0,0,0,0,0
		c0,0,0,0,0,0c0.1-0.1,0.1-0.2,0.2-0.3c0-0.1,0.1-0.1,0.1-0.1c0.1-0.1,0.1-0.2,0.1-0.3c0-0.1,0-0.1,0-0.2c0-0.1,0-0.2,0-0.3
		c0-0.1,0-0.1,0-0.2c0-0.1-0.1-0.2-0.1-0.3c0-0.1-0.1-0.1-0.1-0.2c-0.6-0.7-0.6-1.8,0.1-2.7c0-0.1,0.1-0.1,0.2-0.2
		c0.1-0.1,0.1-0.1,0.2-0.2c0,0,0.1,0,0.1-0.1c0.3-0.2,0.7-0.4,1.1-0.4c0.6-0.1,1.1,0.1,1.5,0.4c0,0,0,0,0,0c0,0,0,0,0,0
		c0.1,0.1,0.1,0.1,0.2,0.2l0.6,0.8c0.3,0.3,0.6,0.4,0.9,0.4c0.3,0,0.6-0.1,0.8-0.3c0.6-0.4,0.7-1.2,0.3-1.8c0,0-0.1-0.1-0.1-0.1
		c-0.1-0.2-0.2-0.4-0.2-0.5c-0.2-0.8,0.1-1.6,0.7-2.1c0.2-0.2,0.4-0.3,0.7-0.4c0.2-0.1,0.5-0.1,0.7-0.1c0.3,0,0.6,0.1,0.9,0.3
		c0.1,0.1,0.3,0.2,0.4,0.4l0.4,0.5c0.5,0.6,1.3,0.6,1.9,0.2c0.6-0.5,0.6-1.3,0.2-1.9c-0.7-0.9-0.6-2.1,0.3-2.9
		c0.4-0.4,0.9-0.5,1.5-0.5c0.5,0,1,0.3,1.4,0.7L73.7,84c1.3,1.5,1.1,3.8-0.5,5.1l-6.1,5.1c0,0,0,0,0,0l-3.9,3.3
		C60.5,99.9,56.9,101,53.4,100.8z M84.3,100.9l-10.9,9c-1.6,1.3-3.6,1.9-5.6,1.7c-2-0.2-3.9-1.2-5.2-2.8l-3.6-4.4l18.9-15.6l5.8,7.2
		c0,0,0,0,0,0l0.9,1.1v0C85.6,98.3,85.4,100,84.3,100.9z"/>
	<path d="M85.7,49.3h19.1c0.7,0,1.3-0.6,1.3-1.3V37.7c0-0.7-0.6-1.3-1.3-1.3H85.7c-0.7,0-1.3,0.6-1.3,1.3V48
		C84.3,48.7,84.9,49.3,85.7,49.3z M87,39h16.4v7.6H87V39z"/>
	<path d="M84.3,66.9c0,0.7,0.6,1.3,1.3,1.3h19.1c0.7,0,1.3-0.6,1.3-1.3V56.6c0-0.7-0.6-1.3-1.3-1.3H85.7c-0.7,0-1.3,0.6-1.3,1.3
		V66.9z M87,57.9h16.4v7.6H87V57.9z"/>
	<path d="M84.3,85.8c0,0.7,0.6,1.3,1.3,1.3h19.1c0.7,0,1.3-0.6,1.3-1.3V75.5c0-0.7-0.6-1.3-1.3-1.3H85.7c-0.7,0-1.3,0.6-1.3,1.3
		V85.8z M87,76.8h16.4v7.6H87V76.8z"/>
	<path d="M20.2,62.2v16.6c0,2.9,2.3,5.2,5.2,5.2h9.2c0.7,0,1.3-0.6,1.3-1.3c0-0.7-0.6-1.3-1.3-1.3h-9.2c-1.4,0-2.6-1.2-2.6-2.6V62.2
		c0-1.4,1.2-2.6,2.6-2.6h44.2c1.4,0,2.6,1.2,2.6,2.6v13c0,0.7,0.6,1.3,1.3,1.3s1.3-0.6,1.3-1.3v-13c0-2.9-2.3-5.2-5.2-5.2H25.4
		C22.5,56.9,20.2,59.3,20.2,62.2z"/>
	<path d="M25.4,77.4c0,0.7,0.6,1.3,1.3,1.3h2.6c0.7,0,1.3-0.6,1.3-1.3s-0.6-1.3-1.3-1.3H28c0-0.7-0.6-1.3-1.3-1.3
		c-0.7,0-1.3,0.6-1.3,1.3V77.4z"/>
	<path d="M25.4,71.6c0,0.7,0.6,1.3,1.3,1.3c0.7,0,1.3-0.6,1.3-1.3v-2.3c0-0.7-0.6-1.3-1.3-1.3c-0.7,0-1.3,0.6-1.3,1.3V71.6z"/>
	<path d="M26.7,66.1c0.7,0,1.3-0.6,1.3-1.3c0.7,0,1.3-0.6,1.3-1.3c0-0.7-0.6-1.3-1.3-1.3h-1.3c-0.7,0-1.3,0.6-1.3,1.3v1.3
		C25.4,65.5,26,66.1,26.7,66.1z"/>
	<path d="M33.6,62.1c-0.7,0-1.3,0.6-1.3,1.3c0,0.7,0.6,1.3,1.3,1.3h2.8c0.7,0,1.3-0.6,1.3-1.3c0-0.7-0.6-1.3-1.3-1.3H33.6z"/>
	<path d="M42,62.1c-0.7,0-1.3,0.6-1.3,1.3c0,0.7,0.6,1.3,1.3,1.3h2.8c0.7,0,1.3-0.6,1.3-1.3c0-0.7-0.6-1.3-1.3-1.3H42z"/>
	<path d="M50.3,62.1c-0.7,0-1.3,0.6-1.3,1.3c0,0.7,0.6,1.3,1.3,1.3h2.8c0.7,0,1.3-0.6,1.3-1.3c0-0.7-0.6-1.3-1.3-1.3H50.3z"/>
	<path d="M58.7,62.1c-0.7,0-1.3,0.6-1.3,1.3c0,0.7,0.6,1.3,1.3,1.3h2.8c0.7,0,1.3-0.6,1.3-1.3c0-0.7-0.6-1.3-1.3-1.3H58.7z"/>
	<path d="M68.3,67.2c0.7,0,1.3-0.6,1.3-1.3v-2.4c0-0.7-0.6-1.3-1.3-1.3H67c-0.7,0-1.3,0.6-1.3,1.3c0,0.7,0.6,1.3,1.3,1.3v1
		C67,66.6,67.6,67.2,68.3,67.2z"/>
	<path d="M35.4,40.4h29.8c0.7,0,1.3-0.6,1.3-1.3c0-0.7-0.6-1.3-1.3-1.3H35.4c-0.7,0-1.3,0.6-1.3,1.3C34.1,39.8,34.7,40.4,35.4,40.4z
		"/>
	<path d="M26.6,40.4h1.9c0.7,0,1.3-0.6,1.3-1.3c0-0.7-0.6-1.3-1.3-1.3h-1.9c-0.7,0-1.3,0.6-1.3,1.3C25.2,39.8,25.8,40.4,26.6,40.4z"
		/>
	<path d="M35.4,50.9h29.8c0.7,0,1.3-0.6,1.3-1.3c0-0.7-0.6-1.3-1.3-1.3H35.4c-0.7,0-1.3,0.6-1.3,1.3C34.1,50.3,34.7,50.9,35.4,50.9z
		"/>
	<path d="M26.6,50.9h1.9c0.7,0,1.3-0.6,1.3-1.3c0-0.7-0.6-1.3-1.3-1.3h-1.9c-0.7,0-1.3,0.6-1.3,1.3C25.2,50.3,25.8,50.9,26.6,50.9z"
		/>
</g>
</svg>
