<?xml version="1.0" encoding="utf-8"?>
<!-- Generator: Adobe Illustrator 23.0.0, SVG Export Plug-In . SVG Version: 6.00 Build 0)  -->
<svg version="1.1" id="Layer_1" xmlns="http://www.w3.org/2000/svg" xmlns:xlink="http://www.w3.org/1999/xlink" x="0px" y="0px"
	 viewBox="0 0 125 125" style="enable-background:new 0 0 125 125;" xml:space="preserve">
<path d="M97.8,57.8c-1.4,1.2-3.3,1.6-5,1.4C91,59,89.4,58,88.3,56.5c-4-6.1-7-12.6-8.9-19.6c-4.1-2.9-7.5-6.7-9.8-11.2
	c-0.5-5-4.6-8.9-9.6-9.2c-1.6,0.2-3.3-0.8-3.7-2.5c-0.4-3-2.1-5.7-4.7-7.2c-1.9-1.1-4-1.5-6.1-1.3c-1.8,0.2-3.3,1.2-4.3,2.6
	c-1.2,1.6-2,3.5-2.2,5.5c-0.1,0.6,0.2,1.3,0.8,1.4c0.1,0,0.1,0,0.2,0c0.2,0,0.2,0.2,0.2,0.4s0,0.1-0.1,0.2C40,16,40.1,16.6,40.5,17
	c1.3,1.1,2.3,2.5,3,3.9c-0.1,1.9,1.1,3.6,2.8,4.3c0.7,3.3,0.4,6.7-0.8,9.7c-2,5.5-5.5,10.3-10.2,13.8c-3.5,1.8-6.3,4.7-8.1,8.3
	c-1.8,1.2-2.7,3.3-2.3,5.4c0.4,2.1,2,3.7,4.1,4.1c-1.2-2.3-0.2-5.1,2.1-6.2c7.1-0.9,13.4-5,16.9-11.2c1.1,1.2,2.7,1.9,4.3,1.8
	c0.1,5.3,1.8,10.5,4.6,15c-3,6-6.5,11.7-10.4,17.2c-1.6,2.3-2.5,5.4-1.9,8.2c1.1,5.6,1.1,11.3,0,16.9c0,0.2-0.1,0.4-0.2,0.5
	c-2.5,2.1-5.6,3.2-8.9,2.9c-0.7,0-1.5,0.2-1.9,0.9l0,0c-0.8,1.4,0,3.2,1.6,3.4c5.8,0.7,11.8,0.6,17.6-0.4c0.9-0.1,1.8-0.9,1.9-1.9
	c1.3-5.8,2-11.9,1.8-17.9c-0.1-2.6,1.4-5,3.7-6.2c3-1.5,5.7-3.5,8.1-5.8c2.1,6.9,5.7,13.3,10.6,18.6c0.6,0.6,1.3,1.2,2,1.8
	c0.7,0.6,1.1,1.4,0.9,2.3c0,1.2-0.8,2.1-1.9,2.6c-1.3,0.7-2.8,0.9-4.3,0.8c-1.5-0.2-2.8,1.4-2,2.8l0,0c6.4,1.4,13.2,1.1,19.5-0.8
	c1.4-0.8,2.1-2.5,1.8-4c-0.1-0.8-0.6-1.6-1.2-2.2c-1.4-1.3-2.5-2.8-3.2-4.6c-1.8-4.2-4.2-8.1-7-11.4c-1.6-1.1-2.7-2.7-3-4.7
	c1.2-5.6,1.1-11.4-0.5-17.1c-1.2-3-1.8-6.4-1.5-9.7c2.8,3.5,6.4,6.3,10.6,8.3c1.2,0.4,2.6,0.4,3.6-0.4s2-1.6,2.2-2.9
	c1.3-0.1,2.5-0.8,3-2C98.8,60.3,98.6,58.9,97.8,57.8z M43.9,17.4c-0.1,0.1-0.2,0.2-0.4,0.4c-0.1,0.1-0.4,0.1-0.5,0.1
	c-0.2,0-0.4-0.1-0.7-0.2c0-0.4,0.1-0.5,0.2-0.7c0.1-0.1,0.2-0.2,0.4-0.4c0.1-0.1,0.4-0.1,0.5-0.1c0.2,0,0.4,0.1,0.7,0.2
	C44.2,17.1,44,17.3,43.9,17.4z M47.3,15.8c-0.1,0.2-0.2,0.4-0.5,0.5c-0.1,0.1-0.4,0.1-0.6,0.2c-0.2,0-0.5,0-0.8-0.1
	c0-0.4,0.1-0.6,0.2-0.7c0.1-0.2,0.2-0.4,0.5-0.5c0.1-0.1,0.4-0.1,0.6-0.2c0.2,0,0.5,0,0.8,0.1C47.6,15.3,47.4,15.6,47.3,15.8z"/>
</svg>
