<?xml version="1.0" encoding="utf-8"?>
<!-- Generator: Adobe Illustrator 23.0.0, SVG Export Plug-In . SVG Version: 6.00 Build 0)  -->
<svg version="1.1" id="Layer_1" xmlns="http://www.w3.org/2000/svg" xmlns:xlink="http://www.w3.org/1999/xlink" x="0px" y="0px"
	 viewBox="0 0 125 125" style="enable-background:new 0 0 125 125;" xml:space="preserve">
<title>navigation, pointer, airport, travel navigate</title>
<path d="M69.7,18.3V11l-7.2-5.4L55.3,11v25H15.2L6,51.3l9.2,15.3h40.1v36.1h-6.5c-4.7,0-8.5,3.8-8.5,8.5v5.8h44.3v-5.8
	c0-4.7-3.8-8.5-8.5-8.5h-6.5V49h40.1l9.2-15.3l-9.2-15.3H69.7z M76.1,106.2c2.8,0,5.1,2.3,5.1,5.1l0,0v2.4H43.8v-2.4
	c0-2.8,2.3-5.1,5.1-5.1l0,0H76.1z M107.8,45.6H69.7V35h-3.4v67.8h-7.5V58.2h-3.4v5.1H17.3L10,51.3l7.2-11.9h38.1V50h3.4V12.7
	l3.8-2.8l3.7,2.8v14.1h3.4v-5.1h38.1l7.2,11.9L107.8,45.6z"/>
<rect x="74.8" y="27.8" width="28.6" height="3.4"/>
<rect x="74.8" y="36" width="21.8" height="3.4"/>
<rect x="21.6" y="45.6" width="28.6" height="3.4"/>
<rect x="28.4" y="53.7" width="21.8" height="3.4"/>
</svg>
