<svg xmlns="http://www.w3.org/2000/svg" viewBox="0 0 102 94.17"><title>occams-razor</title><path d="M105,43a6,6,0,0,0-6,5.52,14.94,14.94,0,0,0-5.67,5.73c-3.77,6-6.81,11.25-14.49,12.41-6.47,1-15.07-2.42-15.43-10a7.8,7.8,0,0,1,3.18-6.83c0,4,.87,8.54,4.19,10.81s8,.77,10.24-2.52c5.35-8-3.88-13.44-11.17-12.67.54-2.74,1.36-5.4,1.89-7.46,1.2-4.6,2.31-9.35,1.51-14.13-1.47-8.77-9-12.86-17.43-13S42.26,17.9,43,25.89c.44,4.5,3.94,7.37,8.05,8.41a23.85,23.85,0,0,1,1.08,8.37c-.81,8-10.19,14.11-18,12.29-2.54-.6-4.15-2.59-5.2-5C35,48.56,40,45.16,39.56,38.76,38.92,30.27,27,28.3,24.45,36.7a20.06,20.06,0,0,0,.48,11,25.84,25.84,0,0,1-4,.25,6,6,0,1,0-.22,2.88A35,35,0,0,0,26,50.57a23.13,23.13,0,0,0,1.63,3.14c2.43,3.85,6.72,4.86,11.07,4.41a20.06,20.06,0,0,0,13.54-7.55c3.66-4.76,3.4-10,2.08-15.61l-.06-.23a13.23,13.23,0,0,0,5.91-1.11c6-2.74,8.86-10.92,3.41-15.71S51.1,17.89,50,24.16a17.35,17.35,0,0,0,.35,7,6.28,6.28,0,0,1-3-2.1c-2.82-3.83-1-10.53,2.4-13.3,3.64-2.94,9.39-2.06,13.52-.46,4.74,1.83,7,6.19,7.31,11.07.4,6.8-2.79,13.2-3.66,19.87-11.19,4.52-6,19.09,3.15,22.55a19.51,19.51,0,0,0,17.24-2.1A20,20,0,0,0,93,60.93c2.12-3.18,3.54-7.18,6.67-9.25A6,6,0,1,0,105,43Zm-77.68.92a15,15,0,0,1-.3-4.68c.7-4,5.35-7.8,8.72-2.91,3.76,5.47-3.15,9.5-7.39,10.69l-.38.1A30.3,30.3,0,0,1,27.32,43.92Zm26.24-21.2c1.5-3.26,5.44-4.74,8.19-2.07,2.54,2.47,1.75,6.76-.86,9-1.64,1.4-4.61,2.19-7.44,2.07C52.74,28.68,52.26,25.55,53.56,22.72ZM71.05,48.28a9.85,9.85,0,0,1,4.78.7c7.59,3.51.29,13.58-4.57,7.85-1.81-2.13-2.15-5.15-1.85-8.29A9.52,9.52,0,0,1,71.05,48.28Z" transform="translate(-9 -10.83)"/><path d="M105,93a6,6,0,0,0-5.45,3.5c-5.28-.43-10.48,1.22-15.89.81-3.79-.29-7.36-1.77-11.13-2.26a29.3,29.3,0,0,0-9.78.66C58.57,96.59,54.39,98,50.07,98s-8.25-1.7-12.44-2.8c-5.74-1.52-11.61-.22-17.35,1A6,6,0,1,0,21,99.09c2.51-.5,5-1,7.55-1.38,4.52-.68,8,.27,12.29,1.58,6.68,2,12.54,1.71,19.28.11,4.08-1,8-1.88,12.21-1.32,3.22.43,6.3,1.58,9.52,2,5.76.79,11.5-1.18,17.17-.67A6,6,0,1,0,105,93Z" transform="translate(-9 -10.83)"/><path d="M19.09,39.54H17l-.6-1.86h-3l-.59,1.86h-2l3.06-8.4H16.1ZM16,36.22l-.9-2.82a3,3,0,0,1-.14-.76h-.05a3.06,3.06,0,0,1-.15.73l-.91,2.85Z" transform="translate(-9 -10.83)"/><path d="M19.09,89.54H17l-.6-1.86h-3l-.59,1.86h-2l3.06-8.4H16.1ZM16,86.22l-.9-2.82a3,3,0,0,1-.14-.76h-.05a3.24,3.24,0,0,1-.15.74l-.91,2.84Z" transform="translate(-9 -10.83)"/><path d="M101.71,39.54v-8.4h3.05a3.8,3.8,0,0,1,2.17.52,1.66,1.66,0,0,1,.75,1.45,1.71,1.71,0,0,1-.46,1.19,2.43,2.43,0,0,1-1.17.71v0a2.42,2.42,0,0,1,1.43.66A1.86,1.86,0,0,1,108,37a2.24,2.24,0,0,1-.83,1.83,3.46,3.46,0,0,1-2.26.67Zm1.89-7v2h.83a1.37,1.37,0,0,0,.92-.29.94.94,0,0,0,.34-.78c0-.61-.46-.92-1.38-.92Zm0,3.4v2.21h1a1.6,1.6,0,0,0,1-.3A1,1,0,0,0,106,37a1,1,0,0,0-.36-.79,1.66,1.66,0,0,0-1-.28Z" transform="translate(-9 -10.83)"/><path d="M101.71,89.54v-8.4h3.05a3.8,3.8,0,0,1,2.17.52,1.66,1.66,0,0,1,.75,1.45,1.71,1.71,0,0,1-.46,1.19,2.43,2.43,0,0,1-1.17.71v0a2.37,2.37,0,0,1,1.43.67A1.82,1.82,0,0,1,108,87a2.24,2.24,0,0,1-.83,1.83,3.46,3.46,0,0,1-2.26.67Zm1.89-7v2h.83a1.37,1.37,0,0,0,.92-.29,1,1,0,0,0,.34-.78c0-.61-.46-.92-1.38-.92Zm0,3.4v2.21h1a1.6,1.6,0,0,0,1-.3A1,1,0,0,0,106,87a1,1,0,0,0-.36-.79,1.66,1.66,0,0,0-1-.28Z" transform="translate(-9 -10.83)"/></svg>