<?xml version="1.0" encoding="utf-8"?>
<!-- Generator: Adobe Illustrator 23.0.0, SVG Export Plug-In . SVG Version: 6.00 Build 0)  -->
<svg version="1.1" id="Layer_1" xmlns="http://www.w3.org/2000/svg" xmlns:xlink="http://www.w3.org/1999/xlink" x="0px" y="0px"
	 viewBox="0 0 125 125" style="enable-background:new 0 0 125 125;" xml:space="preserve">
<g>
	<path d="M113.8,82.4c0-2.7-2.2-5-5-5h-1.7V60.8h3.3v-9.9h-9.9V34.4h3.3v-9.9h-3.3v-6.6c0-2.2-1.4-4-3.3-4.7v-2h-3.3v2
		c-1.9,0.7-3.3,2.5-3.3,4.7v6.6H89v-6.6c0-2.2-1.4-4-3.3-4.7v-2h-3.3v2c-1.9,0.7-3.3,2.5-3.3,4.7v6.6h-2.2c-1.1-2-2.6-3.6-4.4-5v-5
		h-3.3v3c-1.6-0.7-3.2-1.1-5-1.3v-5.1h-3.3v5.1c-1.7,0.2-3.4,0.6-5,1.3v-3h-3.3v5c-1.7,1.3-3.3,3-4.4,5H46v-6.6c0-2.2-1.4-4-3.3-4.7
		v-2h-3.3v2c-1.9,0.7-3.3,2.5-3.3,4.7v6.6h-1.7v-6.6c0-2.2-1.4-4-3.3-4.7v-2h-3.3v2c-1.9,0.7-3.3,2.5-3.3,4.7v6.6h-3.3v9.9h3.3v16.5
		h-9.9v9.9h3.3v16.5h-1.7c-2.7,0-5,2.2-5,5c0,2.2,1.4,4,3.3,4.7v26.8h96V87C112.4,86.3,113.8,84.5,113.8,82.4z M103.9,77.4h-3.3
		v-8.3c0-2.7-2.2-5-5-5c-2.7,0-5,2.2-5,5v8.3h-3.3V60.8h16.5V77.4z M97.2,77.4h-3.3v-8.3c0-0.9,0.7-1.7,1.7-1.7
		c0.9,0,1.7,0.7,1.7,1.7V77.4z M77.4,77.4h-3.3v-8.3c0-0.9,0.7-1.7,1.7-1.7s1.7,0.7,1.7,1.7V77.4z M75.7,64.2c-2.7,0-5,2.2-5,5v8.3
		h-3.3v-8.3c0-2.7-2.2-5-5-5c-2.7,0-5,2.2-5,5v8.3h-3.3v-8.3c0-2.7-2.2-5-5-5s-5,2.2-5,5v8.3H41V60.8h43v16.5h-3.3v-8.3
		C80.7,66.4,78.5,64.2,75.7,64.2z M64.2,77.4h-3.3v-8.3c0-0.9,0.7-1.7,1.7-1.7c0.9,0,1.7,0.7,1.7,1.7V77.4z M50.9,77.4h-3.3v-8.3
		c0-0.9,0.7-1.7,1.7-1.7s1.7,0.7,1.7,1.7V77.4z M97.2,50.9h-9.9V34.4h9.9V50.9z M77.4,50.9h-3.3v-8.3c0-0.9,0.7-1.7,1.7-1.7
		s1.7,0.7,1.7,1.7V50.9z M75.7,37.7c-2.7,0-5,2.2-5,5v8.3h-3.3v-8.3c0-2.7-2.2-5-5-5c-2.7,0-5,2.2-5,5v8.3h-3.3v-8.3
		c0-2.7-2.2-5-5-5s-5,2.2-5,5v8.3H41V34.4h14.9v-1.7c0-3.6,3-6.6,6.6-6.6c3.6,0,6.6,3,6.6,6.6v1.7H84v16.5h-3.3v-8.3
		C80.7,39.9,78.5,37.7,75.7,37.7z M64.2,50.9h-3.3v-8.3c0-0.9,0.7-1.7,1.7-1.7c0.9,0,1.7,0.7,1.7,1.7V50.9z M50.9,50.9h-3.3v-8.3
		c0-0.9,0.7-1.7,1.7-1.7s1.7,0.7,1.7,1.7V50.9z M95.6,16.2c0.9,0,1.7,0.7,1.7,1.7h-3.3C93.9,16.9,94.7,16.2,95.6,16.2z M93.9,21.1
		h3.3v3.3h-3.3V21.1z M84,16.2c0.9,0,1.7,0.7,1.7,1.7h-3.3C82.4,16.9,83.1,16.2,84,16.2z M82.4,21.1h3.3v3.3h-3.3V21.1z M41,16.2
		c0.9,0,1.7,0.7,1.7,1.7h-3.3C39.3,16.9,40.1,16.2,41,16.2z M39.3,21.1h3.3v3.3h-3.3V21.1z M29.4,16.2c0.9,0,1.7,0.7,1.7,1.7h-3.3
		C27.8,16.9,28.5,16.2,29.4,16.2z M27.8,21.1h3.3v3.3h-3.3V21.1z M24.4,27.8h25.8l0.5-0.9c2.3-4.5,6.8-7.4,11.8-7.4
		s9.6,2.8,11.8,7.4l0.5,0.9h25.8v3.3H72.3c-0.8-4.7-4.9-8.3-9.8-8.3s-9,3.6-9.8,8.3H24.4V27.8z M27.8,34.4h9.9v16.5h-9.9V34.4z
		 M17.8,54.2h89.3v3.3H17.8V54.2z M21.1,60.8h16.5v16.5h-3.3v-8.3c0-2.7-2.2-5-5-5s-5,2.2-5,5v8.3h-3.3V60.8z M31.1,77.4h-3.3v-8.3
		c0-0.9,0.7-1.7,1.7-1.7c0.9,0,1.7,0.7,1.7,1.7V77.4z M84,87.3h23.2v9.9H84V87.3z M80.7,110.5h-3.3V93.9h-5.2
		c-0.7-1.9-2.5-3.3-4.7-3.3c-0.9,0-1.7,0.2-2.5,0.7c-1.5-0.9-3.5-0.9-5,0c-0.7-0.4-1.6-0.7-2.5-0.7c-2.2,0-4,1.4-4.7,3.3h-5.2v16.5
		h-3.3V87.3h36.4V110.5z M67.5,110.5h-9.9v-6.6h9.9V110.5z M54.2,100.6v9.9h-3.3V97.2h5v-1.7c0-0.9,0.7-1.7,1.7-1.7
		c0.6,0,1,0.4,1.2,0.6l1.2,1.4l1.2-1.4c0.2-0.2,0.6-0.6,1.2-0.6c0.6,0,1,0.4,1.2,0.6l1.2,1.4l1.2-1.4c0.2-0.2,0.6-0.6,1.2-0.6
		c0.9,0,1.7,0.7,1.7,1.7v1.7h5v13.2h-3.3v-9.9H54.2z M41,97.2H17.8v-9.9H41V97.2z M17.8,100.6H41v9.9H17.8V100.6z M84,110.5v-9.9
		h23.2v9.9H84z M108.8,84H16.2c-0.9,0-1.7-0.7-1.7-1.7s0.7-1.7,1.7-1.7h92.6c0.9,0,1.7,0.7,1.7,1.7S109.7,84,108.8,84z"/>
	<rect x="22.8" y="90.6" width="3.3" height="3.3"/>
	<rect x="32.7" y="90.6" width="3.3" height="3.3"/>
	<rect x="22.8" y="103.9" width="3.3" height="3.3"/>
	<rect x="32.7" y="103.9" width="3.3" height="3.3"/>
	<rect x="89" y="90.6" width="3.3" height="3.3"/>
	<rect x="98.9" y="90.6" width="3.3" height="3.3"/>
	<rect x="89" y="103.9" width="3.3" height="3.3"/>
	<rect x="98.9" y="103.9" width="3.3" height="3.3"/>
	<rect x="90.6" y="41" width="3.3" height="3.3"/>
	<rect x="31.1" y="41" width="3.3" height="3.3"/>
</g>
</svg>
