<?xml version="1.0" encoding="utf-8"?>
<!-- Generator: Adobe Illustrator 23.0.0, SVG Export Plug-In . SVG Version: 6.00 Build 0)  -->
<svg version="1.1"
	 id="Layer_1" xmlns:cc="http://creativecommons.org/ns#" xmlns:dc="http://purl.org/dc/elements/1.1/" xmlns:inkscape="http://www.inkscape.org/namespaces/inkscape" xmlns:rdf="http://www.w3.org/1999/02/22-rdf-syntax-ns#" xmlns:sodipodi="http://sodipodi.sourceforge.net/DTD/sodipodi-0.dtd" xmlns:svg="http://www.w3.org/2000/svg"
	 xmlns="http://www.w3.org/2000/svg" xmlns:xlink="http://www.w3.org/1999/xlink" x="0px" y="0px" viewBox="0 0 125 125"
	 style="enable-background:new 0 0 125 125;" xml:space="preserve">
<g transform="translate(0,-952.36218)">
	<path d="M10.7,975.4c-2.6,0-4.8,2.2-4.8,4.8v65.1c0,2.6,2.2,4.8,4.8,4.8h77.2l5.7,6.1c1.4,1.5,3.9,1.5,5.3,0l16.8-17.9
		c4.6-4.9,4.7-13,0-18c-2.4-2.5-5.5-3.8-8.5-3.9v-36.1c0-2.6-2.2-4.8-4.8-4.8L10.7,975.4L10.7,975.4z M13.1,982.6h86.7v36.1
		c-0.6,0.4-1.2,0.9-1.7,1.5l-1.4,1.5l-22.1-21.3c-1.5-1-3.5-1.6-5.2,0.2l-20.6,22.7L33.1,1010c-1.3-1.1-3.3-1.1-4.6-0.1l-15.4,12.2
		C13.1,1022.1,13.1,982.6,13.1,982.6z M45.6,987.5c-5.9,0-10.8,4.9-10.8,10.8c0,5.9,4.9,10.8,10.8,10.8s10.8-4.9,10.8-10.8
		C56.5,992.4,51.6,987.5,45.6,987.5z M45.6,994.7c2,0,3.6,1.6,3.6,3.6c0,2-1.6,3.6-3.6,3.6s-3.6-1.6-3.6-3.6
		C42,996.3,43.6,994.7,45.6,994.7z M72.3,1008.3l9.1,8.8c-1.7,0.6-3.2,1.7-4.6,3.2c-4.7,5-4.7,13,0,18l4.3,4.6H13.1v-11.5l17.6-13.9
		l16.2,13.7c1.4,1.2,3.8,1,5-0.3L72.3,1008.3L72.3,1008.3z M106.9,1023.5c1.2,0,2.4,0.6,3.5,1.7c2.1,2.2,2.1,5.9,0,8.1l-14.1,15.1
		l-14.1-15.1c-2.1-2.2-2.1-5.9,0-8.1c1-1.1,2.3-1.5,3.5-1.5c1.2,0,2.4,0.4,3.4,1.5l4.6,4.9c1.3,1.5,4,1.5,5.3,0l4.6-4.9
		C104.5,1024.1,105.7,1023.5,106.9,1023.5L106.9,1023.5z"/>
</g>
</svg>
