<?xml version="1.0" encoding="utf-8"?>
<!-- Generator: Adobe Illustrator 23.0.0, SVG Export Plug-In . SVG Version: 6.00 Build 0)  -->
<svg version="1.1"
	 id="Layer_1" xmlns:cc="http://creativecommons.org/ns#" xmlns:dc="http://purl.org/dc/elements/1.1/" xmlns:inkscape="http://www.inkscape.org/namespaces/inkscape" xmlns:rdf="http://www.w3.org/1999/02/22-rdf-syntax-ns#" xmlns:sodipodi="http://sodipodi.sourceforge.net/DTD/sodipodi-0.dtd" xmlns:svg="http://www.w3.org/2000/svg"
	 xmlns="http://www.w3.org/2000/svg" xmlns:xlink="http://www.w3.org/1999/xlink" x="0px" y="0px" viewBox="0 0 125 125"
	 style="enable-background:new 0 0 125 125;" xml:space="preserve">
<style type="text/css">
	.st0{fill-rule:evenodd;clip-rule:evenodd;}
</style>
<g transform="translate(0,-952.36218)">
	<path class="st0" d="M61.5,961.1c-5.3,0-9.7,4.4-9.7,9.8v23.4c-1.4-0.8-3-1.3-4.7-1.3c-4.5,0-8.3,3.1-9.4,7.3
		c-1.5-0.9-3.2-1.5-5-1.5c-5.3,0-9.7,4.4-9.7,9.8c0,4,0,7.8,0,11.8v41.7c0,4.1,3.3,7.5,7.4,7.5h47.3c0.5,0.1,1.1,0,1.6-0.2h0.1l0,0
		h0.1c0.1,0,0.2-0.1,0.3-0.2l0,0l0,0c0.2-0.2,0.4-0.5,0.6-0.7l0,0c0.1-0.1,0.1-0.3,0.2-0.5l8.6-18.8l0,0c2.6-6.1,3.6-10.6,3.3-14.2
		c-0.3-3.6-2-6.3-4.2-7.8c-1.8-1.2-3.7-1.8-5.3-2l17.6-40.9c1.5-3.4,1.7-6.6,0.8-9.2c-0.9-2.6-2.9-4.5-5.2-5.4
		c-1.2-0.5-2.4-0.7-3.7-0.7c-3.8,0-7.6,2.3-9.5,6.6L71.1,1003v-31.9C71.2,965.5,66.9,961.1,61.5,961.1L61.5,961.1z M61.5,966
		c2.6,0,4.7,2.2,4.7,4.9v43.6l0,0c0,2.8,2.1,5.6,4.8,0.9l16.6-38.1c1.5-3.5,4.6-4.2,6.8-3.3c1.1,0.4,1.9,1.3,2.4,2.5
		c0.4,1.2,0.5,3.1-0.7,5.7L77.6,1025H67.4c-5.4,0-9.9,4.3-9.9,9.6c0,5.3,4.5,9.6,9.9,9.6h4c1.3,0,2.5-1.2,2.5-2.5s-1.2-2.5-2.5-2.5
		h-4c-2.8,0-4.9-2.1-4.9-4.7c0-2.5,2.2-4.7,4.9-4.7h11.3c0.3,0.1,0.7,0,1,0h0.1c0.7,0,3.7-0.2,5.6,1.1c1.1,0.7,1.8,1.7,2,4.1
		s-0.4,6.2-2.9,11.8l-8.1,17.7h-46c-1.3,0-2.5-1.1-2.5-2.5v-33.2c1.4,0.8,3,1.3,4.7,1.3c1.9,0,3.6-0.6,5-1.5
		c1.1,4.2,4.9,7.3,9.4,7.3c5.3,0,9.7-4.4,9.7-9.8c0-7.8,0-15.6,0-23.4v-32C56.8,968.1,58.9,966,61.5,966L61.5,966z M47.1,998
		c2.6,0,4.7,2.1,4.7,4.9c0,7.8,0,15.6,0,23.4c0,2.7-2.2,4.9-4.7,4.9c-2.6,0-4.7-2.1-4.7-4.9c0-5.9,0-11.7,0-17.6v-5.8
		C42.4,1000.1,44.5,998,47.1,998z M32.7,1003.8c2.6,0,4.7,2.1,4.7,4.9c0,4,0,7.8,0,11.8c0,2.7-2.1,4.9-4.7,4.9s-4.7-2.1-4.7-4.9
		c0-4,0-7.8,0-11.8C28,1005.9,30.1,1003.8,32.7,1003.8z"/>
</g>
</svg>
