<svg xmlns="http://www.w3.org/2000/svg" viewBox="0 0 32 40" x="0px" y="0px"><title>Repeat_2</title><g data-name="Layer 2"><path d="M29.62,12.33a1,1,0,0,0-1.4.16l-1.59,2A10.82,10.82,0,0,0,7.17,9.41a1,1,0,0,0,1.61,1.19A8.72,8.72,0,0,1,15.87,7a8.86,8.86,0,0,1,8.82,8.05L22.26,13.4a1,1,0,1,0-1.12,1.65l4.17,2.83a1,1,0,0,0,1.35-.21l3.13-3.95A1,1,0,0,0,29.62,12.33Z"/><path d="M23.25,20.42A8.83,8.83,0,0,1,7.31,16l2.43,1.65A1,1,0,1,0,10.86,16L6.7,13.17a1,1,0,0,0-1.35.21L2.22,17.33a1,1,0,1,0,1.57,1.24l1.59-2a10.82,10.82,0,0,0,19.5,5,1,1,0,1,0-1.62-1.17Z"/></g><text x="0" y="47" fill="#000000" font-size="5px" font-weight="bold" font-family="'Helvetica Neue', Helvetica, Arial-Unicode, Arial, Sans-serif">Created by Saepul Nahwan</text><text x="0" y="52" fill="#000000" font-size="5px" font-weight="bold" font-family="'Helvetica Neue', Helvetica, Arial-Unicode, Arial, Sans-serif">from the Noun Project</text></svg>