<?xml version="1.0" encoding="utf-8"?>
<!-- Generator: Adobe Illustrator 23.0.0, SVG Export Plug-In . SVG Version: 6.00 Build 0)  -->
<svg version="1.1" xmlns="http://www.w3.org/2000/svg" xmlns:xlink="http://www.w3.org/1999/xlink" x="0px" y="0px"
	 viewBox="0 0 125 125" style="enable-background:new 0 0 125 125;" xml:space="preserve">
<g id="Layer_2">
</g>
<g id="Layer_1">
	<path d="M72.1,117.9c-0.2,0-0.3,0-0.6,0l-33-2.9c-3.4-0.3-5.9-3.1-5.9-6.5v-22c0-0.7-0.5-1.2-0.7-1.4c-10.4-9-16.5-22.2-16.5-35.5
		C15.3,26.8,34,8.1,56.9,8.1c21.7,0,39.4,16.3,41.4,37.9c0,0.6,0.2,1.2,0.5,1.6l9.7,14.8c1.5,2.3,1.6,5.2,0.3,7.6S105,74,102.2,74
		h-3.7v13.5c0,5.3-4.3,9.6-9.6,9.6H78.7v14.2c0,1.8-0.8,3.6-2.1,4.7C75.3,117.3,73.7,117.9,72.1,117.9z M56.9,14.5
		c-19.5,0-35.2,15.7-35.2,35.2c0,11.3,5.4,23,14.3,30.6c1.8,1.6,2.9,3.8,2.9,6.1v22l33.2,3.1l0.2-15.7c0-2.8,2.2-5,5-5h11.6
		c1.8,0,3.2-1.5,3.2-3.2V72c0-2.4,2-4.4,4.4-4.4h5.7c0.6,0,0.9-0.3,1-0.6s0.2-0.7,0-1.2L93.3,51c-0.8-1.4-1.3-2.8-1.4-4.4
		C90.3,28.2,75.3,14.5,56.9,14.5z"/>
	<circle cx="56.9" cy="32.5" r="5.4"/>
	<circle cx="56.9" cy="47" r="5.4"/>
	<circle cx="42.5" cy="38.9" r="5.4"/>
	<circle cx="45.3" cy="54.5" r="5.4"/>
	<circle cx="59" cy="61.5" r="5.4"/>
	<circle cx="71.3" cy="38.9" r="5.4"/>
	<circle cx="71.3" cy="53.5" r="5.4"/>
</g>
</svg>
