<?xml version="1.0" encoding="utf-8"?>
<!-- Generator: Adobe Illustrator 23.0.0, SVG Export Plug-In . SVG Version: 6.00 Build 0)  -->
<svg version="1.1" id="Layer_1" xmlns="http://www.w3.org/2000/svg" xmlns:xlink="http://www.w3.org/1999/xlink" x="0px" y="0px"
	 viewBox="0 0 125 125" style="enable-background:new 0 0 125 125;" xml:space="preserve">
<path d="M37.7,76.7h-3.5c0,1-0.8,1.8-1.8,1.8c-1,0-1.8-0.8-1.8-1.8h-3.5c0,2.9,2.4,5.3,5.3,5.3S37.7,79.6,37.7,76.7z"/>
<path d="M46.6,82c2.9,0,5.3-2.4,5.3-5.3h-3.5c0,1-0.8,1.8-1.8,1.8c-1,0-1.8-0.8-1.8-1.8h-3.5C41.2,79.6,43.6,82,46.6,82z"/>
<path d="M11.1,115.6h56.7c1,0,1.8-0.8,1.8-1.8c0-8.9-7-15.5-16.8-15.9c3.9-3.6,6.1-8.7,6.1-14.2c0-10.7-8.7-19.5-19.5-19.5
	S20,73,20,83.8c0,5.5,2.3,10.6,6.1,14.2c-9.8,0.4-16.8,7-16.8,15.9C9.4,114.8,10.2,115.6,11.1,115.6z M27.1,101.5h4.7
	c0.8,0,1.5-0.6,1.7-1.4c0.2-0.8-0.2-1.6-1-2c-5.6-2.7-9-8.2-9-14.3c0-8.8,7.2-15.9,15.9-15.9S55.4,75,55.4,83.8
	c0,6.2-3.5,11.7-9,14.3c-0.7,0.4-1.1,1.2-1,2c0.2,0.8,0.9,1.4,1.7,1.4h4.7c7.7,0,13.2,4.3,14.1,10.6H13
	C13.9,105.8,19.4,101.5,27.1,101.5z"/>
<path d="M39.5,85.5c-4,0-7.1,2.3-7.1,5.3s3.1,5.3,7.1,5.3s7.1-2.3,7.1-5.3S43.4,85.5,39.5,85.5z M39.5,92.6c-2.2,0-3.5-1-3.5-1.8
	s1.4-1.8,3.5-1.8s3.5,1,3.5,1.8S41.6,92.6,39.5,92.6z"/>
<path d="M9.4,14.7v40.7c0,2.9,2.4,5.3,5.3,5.3h64.5l-13,27.6c-0.4,0.8-0.1,1.7,0.6,2.2c0.3,0.2,0.7,0.3,1,0.3c0.4,0,0.9-0.2,1.2-0.5
	l31.4-29.6h9.9c2.9,0,5.3-2.4,5.3-5.3V14.7c0-2.9-2.4-5.3-5.3-5.3H14.7C11.7,9.4,9.4,11.7,9.4,14.7z M112.1,14.7v40.7
	c0,1-0.8,1.8-1.8,1.8H99.7c-0.5,0-0.9,0.2-1.2,0.5L73.4,81.4l10.2-21.6c0.3-0.5,0.2-1.2-0.1-1.7c-0.3-0.5-0.9-0.8-1.5-0.8H14.7
	c-1,0-1.8-0.8-1.8-1.8V14.7c0-1,0.8-1.8,1.8-1.8h95.7C111.3,12.9,112.1,13.7,112.1,14.7z"/>
<rect x="18.2" y="18.2" width="12.4" height="3.5"/>
<rect x="34.2" y="18.2" width="23" height="3.5"/>
<path d="M101.5,27.1c0-2.9-2.4-5.3-5.3-5.3c-2.9,0-5.3,2.4-5.3,5.3s2.4,5.3,5.3,5.3C99.1,32.4,101.5,30,101.5,27.1z M94.4,27.1
	c0-1,0.8-1.8,1.8-1.8c1,0,1.8,0.8,1.8,1.8c0,1-0.8,1.8-1.8,1.8C95.2,28.8,94.4,28,94.4,27.1z"/>
<path d="M96.2,53.6c7.1,0,12.4-3,12.4-7.1c0-3-2.9-5.4-7.4-6.5l3.4-5.5c1.4-2.2,2.1-4.8,2.1-7.5c0-5.9-4.8-10.6-10.6-10.6
	c-5.9,0-10.6,4.8-10.6,10.6c0,2.7,0.7,5.2,2.1,7.5l3.4,5.5c-4.5,1.1-7.4,3.5-7.4,6.5C83.8,50.6,89.1,53.6,96.2,53.6z M89.1,27.1
	c0-3.9,3.2-7.1,7.1-7.1c3.9,0,7.1,3.2,7.1,7.1c0,2-0.6,3.9-1.6,5.6l-5.5,8.8l-5.5-8.8C89.6,31,89.1,29.1,89.1,27.1z M93.1,43.3
	l1.5,2.5c0.3,0.5,0.9,0.8,1.5,0.8c0.6,0,1.2-0.3,1.5-0.8l1.5-2.5c3.8,0.6,5.8,2.2,5.8,3.3c0,1.4-3.5,3.5-8.9,3.5
	c-5.4,0-8.9-2.1-8.9-3.5C87.3,45.5,89.3,43.9,93.1,43.3z"/>
<path d="M18.2,53.6h17.7c1,0,1.8-0.8,1.8-1.8v-5.3c0-2.8-1.6-5.2-4-6.4c0.3-0.8,0.5-1.6,0.5-2.5c0-3.9-3.2-7.1-7.1-7.1
	S20,33.8,20,37.7c0,0.9,0.2,1.7,0.5,2.5c-2.4,1.2-4,3.6-4,6.4v5.3C16.4,52.8,17.2,53.6,18.2,53.6z M20,46.6c0-1.8,1.5-3.4,3.3-3.5
	c0.7,0,1.3-0.5,1.5-1.1s0.1-1.4-0.3-1.9c-0.6-0.7-0.9-1.5-0.9-2.4c0-2,1.6-3.5,3.5-3.5s3.5,1.6,3.5,3.5c0,0.9-0.3,1.7-0.9,2.4
	c-0.5,0.5-0.6,1.2-0.3,1.9c0.3,0.6,0.8,1.1,1.5,1.1c1.9,0.1,3.3,1.7,3.3,3.5v3.5H20V46.6z"/>
<rect x="41.2" y="50.1" width="3.5" height="3.5"/>
<rect x="48.3" y="48.3" width="3.5" height="3.5"/>
<rect x="55.4" y="46.6" width="3.5" height="3.5"/>
<rect x="62.5" y="44.8" width="3.5" height="3.5"/>
<path d="M71.9,42.5l2.3,2.3h-4.6v3.5h4.6l-2.3,2.3l2.5,2.5l5.3-5.3c0.7-0.7,0.7-1.8,0-2.5L74.4,40L71.9,42.5z"/>
<rect x="41.2" y="27.1" width="33.7" height="3.5"/>
</svg>
