<?xml version="1.0" encoding="utf-8"?>
<!-- Generator: Adobe Illustrator 23.0.0, SVG Export Plug-In . SVG Version: 6.00 Build 0)  -->
<svg version="1.1" xmlns="http://www.w3.org/2000/svg" xmlns:xlink="http://www.w3.org/1999/xlink" x="0px" y="0px"
	 viewBox="0 0 125 125" style="enable-background:new 0 0 125 125;" xml:space="preserve">
<g id="Layer_2">
</g>
<g id="Layer_1">
	<g>
		<path d="M37.8,66.3H13.5c-2,0-3.6,1.6-3.6,3.6s1.6,3.6,3.6,3.6h24.3c2,0,3.6-1.6,3.6-3.6S39.8,66.3,37.8,66.3z"/>
		<path d="M37.8,52.3h-16c-2,0-3.6,1.6-3.6,3.6c0,2,1.6,3.6,3.6,3.6h16c2,0,3.6-1.6,3.6-3.6C41.4,54,39.8,52.3,37.8,52.3z"/>
		<path d="M37.8,80.2h-16c-2,0-3.6,1.6-3.6,3.6s1.6,3.6,3.6,3.6h16c2,0,3.6-1.6,3.6-3.6S39.8,80.2,37.8,80.2z"/>
		<path d="M76,28.4V22h4.8c2,0,3.6-1.6,3.6-3.6s-1.6-3.6-3.6-3.6h-17c-2,0-3.6,1.6-3.6,3.6s1.6,3.6,3.6,3.6h4.8v6.5
			c-9.8,0.9-18.7,5-25.8,12.1c-0.7,0.7-1.1,1.6-1.1,2.6c0,1,0.4,1.9,1.1,2.6l6.1,6.1c1.4,1.4,3.7,1.4,5.2,0s1.4-3.7,0-5.2l-3.4-3.4
			c5.2-4.2,11.3-6.7,17.9-7.3v4.8c0,2,1.6,3.6,3.6,3.6c2,0,3.6-1.6,3.6-3.6V36c16,1.8,28.7,14.5,30.4,30.4h-4.8
			c-2,0-3.6,1.6-3.6,3.6c0,2,1.6,3.6,3.6,3.6h4.8c-0.8,6.7-3.4,12.8-7.5,17.8L95.4,88c-1.4-1.4-3.7-1.4-5.2,0
			c-1.4,1.4-1.4,3.7,0,5.2l3.4,3.4c-4.9,4.1-11.1,6.7-17.8,7.5v-4.8c0-2-1.6-3.6-3.6-3.6c-2,0-3.6,1.6-3.6,3.6v4.8
			c-6.6-0.7-12.7-3.2-17.9-7.3l3.4-3.4c1.4-1.4,1.4-3.7,0-5.2c-1.4-1.4-3.7-1.4-5.2,0l-6.1,6.1c-0.4,0.3-0.7,0.9-0.9,1.4
			c-0.5,1.4-0.1,3.1,1.1,4.1c7.9,7.8,18.2,11.9,29.2,11.9C95.2,111.6,114,93,114,70C114,48.2,97.3,30.3,76,28.4z"/>
		<path d="M91.9,50.3c-1.4-1.4-3.7-1.4-5.2,0l-9.5,9.6c-1.5-0.8-3.1-1.2-4.9-1.2c-6.1,0-11.2,5-11.2,11.2s5,11.2,11.2,11.2
			c6.1,0,11.2-5,11.2-11.2c0-1.8-0.4-3.4-1.2-4.9l9.5-9.5C93.4,54.1,93.4,51.7,91.9,50.3z M72.3,73.8c-2.2,0-3.9-1.8-3.9-3.9
			s1.8-3.9,3.9-3.9s3.9,1.8,3.9,3.9S74.5,73.8,72.3,73.8z"/>
	</g>
</g>
</svg>
