<?xml version="1.0" encoding="utf-8"?>
<!-- Generator: Adobe Illustrator 23.0.0, SVG Export Plug-In . SVG Version: 6.00 Build 0)  -->
<svg version="1.1" id="Layer_1" xmlns="http://www.w3.org/2000/svg" xmlns:xlink="http://www.w3.org/1999/xlink" x="0px" y="0px"
	 viewBox="0 0 125 125" style="enable-background:new 0 0 125 125;" xml:space="preserve">
<g>
	<g>
		<circle cx="62.7" cy="32.4" r="11.5"/>
	</g>
	<g>
		<path d="M98,75.1c-2.8,0-5.3,0.6-7.6,1.6L73.6,47.5c4.6-3.3,7.7-8.9,7.7-15.1c0-10.3-8.3-18.6-18.6-18.6s-18.6,8.3-18.6,18.6
			c0,6.2,3,11.7,7.7,15.1l-17,29.3c-2.3-1-5-1.6-7.6-1.6C17,75.2,8.7,83.5,8.7,93.8s8.3,18.6,18.6,18.6c9.6,0,17.5-7.4,18.5-16.7
			h33.8c0.9,9.3,8.9,16.7,18.5,16.7c10.3,0,18.6-8.3,18.6-18.6S108.3,75.1,98,75.1z M47.8,32.4c0-8.2,6.7-14.9,14.9-14.9
			s14.9,6.7,14.9,14.9c0,4.8-2.3,9.1-5.9,11.8c-1,0.8-2.1,1.4-3.2,1.8c-1.7,0.7-3.7,1.2-5.8,1.2s-3.9-0.5-5.8-1.2
			c-1.2-0.5-2.2-1.2-3.2-1.8C50.1,41.5,47.8,37.2,47.8,32.4z M27.3,108.6c-8.2,0-14.9-6.7-14.9-14.9s6.7-14.9,14.9-14.9
			s14.9,6.7,14.9,14.9C42,101.9,35.5,108.6,27.3,108.6z M45.7,91.8c-0.6-5.4-3.5-10.2-7.6-13.2l17-29.3c2.3,1,5,1.6,7.6,1.6
			c2.7,0,5.3-0.6,7.6-1.6l17,29.3c-4.2,3-7,7.7-7.6,13.2H45.7z M98,108.6c-8.2,0-14.9-6.7-14.9-14.9S89.8,78.8,98,78.8
			s14.9,6.7,14.9,14.9C112.9,101.9,106.2,108.6,98,108.6z"/>
	</g>
	<g>
		<circle cx="27.3" cy="93.7" r="11.5"/>
	</g>
</g>
</svg>
