<?xml version="1.0" encoding="utf-8"?>
<!-- Generator: Adobe Illustrator 23.0.0, SVG Export Plug-In . SVG Version: 6.00 Build 0)  -->
<svg version="1.1" xmlns="http://www.w3.org/2000/svg" xmlns:xlink="http://www.w3.org/1999/xlink" x="0px" y="0px"
	 viewBox="0 0 125 125" style="enable-background:new 0 0 125 125;" xml:space="preserve">
<g id="Layer_2">
</g>
<g id="Layer_1">
	<g>
		<path d="M112,73.5L103.9,57c-0.7-1.4-1.2-3-1.6-5.2c-3-16.7-17.3-28.7-33.9-29.2c-1.4-2.5-3-4.9-5.1-7
			c-11.6-11.6-30.4-11.6-41.8,0c-5.7,5.6-8.7,13-8.7,20.9s3.1,15.3,8.7,21c3.1,3.1,6.7,5.3,10.7,6.7c1.2,7.5,4.6,14.8,10,20.7
			c2.9,3.1,4.4,7.6,4.4,12.4v11.6c0,2.9,2.1,5.2,5,5.4l28.5,2.5c0.1,0,0.3,0,0.5,0c1.4,0,2.7-0.5,3.7-1.4c1.2-1,1.7-2.5,1.7-4.1
			v-9.7c0-1.5,1.3-2.7,2.7-2.7h2.7c6.5,0,11.8-5.3,11.8-11.8V79h5.6c1.4,0,2.5-0.7,3.2-1.9C112.5,76.1,112.5,74.6,112,73.5z
			 M19.3,36.5c0-6.1,2.4-11.9,6.7-16.2c8.9-8.9,23.5-8.9,32.4,0c7.1,7.1,8.7,18,3.9,26.9c-0.5,0.8-0.5,1.7-0.2,2.5l3.4,10.1
			l-10.1-3.4c-0.3-0.1-0.7-0.1-1-0.1c-0.6,0-1,0.1-1.5,0.3c-9,4.7-19.8,3.1-26.9-3.9C21.6,48.5,19.3,42.7,19.3,36.5z"/>
		<circle cx="42.7" cy="48.7" r="3.5"/>
		<path d="M46.2,28.8c0.6,1.2,0.5,2.4-0.2,3.4c-0.7,1-1.4,1.5-2.2,2c-2,1.4-3.7,2.9-4.1,7.1c0,0.5,0.1,0.9,0.5,1.3s0.8,0.6,1.3,0.6
			h2.3c0.9,0,1.6-0.7,1.7-1.6c0.1-1.6,0.5-1.9,1.5-2.7c0.9-0.7,2.3-1.6,3.6-3.4c2-2.8,2.3-6.4,0.7-9.5c-1.6-3.2-5.1-5.2-9-5.2
			c-6.6,0-9.7,4.7-10.3,8.9c-0.1,0.5,0.1,1,0.5,1.4c0.3,0.3,0.8,0.6,1.4,0.6h2.3c0.8,0,1.6-0.6,1.7-1.5c0.3-1.6,1.3-3.6,4.5-3.6
			C44.8,26.8,45.8,28.1,46.2,28.8z"/>
	</g>
</g>
</svg>
